<svg width="883" height="477" viewBox="0 0 883 477" fill="none" xmlns="http://www.w3.org/2000/svg">
<g opacity="0.11">
<path d="M881.435 278.447V440.174H413.786L266.192 105.28L265.539 103.84H706.828C753.134 103.847 797.542 122.245 830.286 154.989C863.03 187.733 881.428 232.141 881.435 278.447Z" fill="#B6C7D9"/>
<path opacity="0.3" d="M882.849 278.447V440.174H748.598V278.447C748.591 232.141 730.192 187.733 697.449 154.989C664.705 122.245 620.297 103.847 573.99 103.84H708.241C754.548 103.847 798.956 122.245 831.699 154.989C864.443 187.733 882.842 232.141 882.849 278.447Z" fill="#E5EBF1"/>
<path d="M440.147 278.447V440.174H90.9316V278.447C90.9316 232.139 109.328 187.727 142.073 154.981C174.818 122.236 219.23 103.84 265.539 103.84C311.848 103.84 356.26 122.236 389.006 154.981C421.751 187.727 440.147 232.139 440.147 278.447Z" fill="#D3DDE8"/>
<path d="M335.926 282.31V440.177H167.949V282.31C167.949 260.031 176.8 238.665 192.553 222.911C208.306 207.158 229.673 198.308 251.951 198.308C253.772 198.308 255.62 198.308 257.387 198.498C278.672 199.879 298.634 209.311 313.217 224.878C327.799 240.445 335.909 260.979 335.899 282.31H335.926Z" fill="#B6C7D9"/>
<path d="M335.926 282.307V440.174H178.983V282.307C178.985 260.985 187.095 240.461 201.67 224.898C216.244 209.334 236.192 199.895 257.468 198.495C278.753 199.876 298.715 209.308 313.298 224.875C327.88 240.442 335.99 260.976 335.98 282.307H335.926Z" fill="#9BB1C6"/>
<path d="M233.336 327.176C235.619 330.736 234.912 333.317 232.847 334.649C230.781 335.981 228.118 335.519 225.862 331.931C223.607 328.344 224.612 321.768 224.612 321.768C224.612 321.768 230.972 323.616 233.336 327.176Z" fill="#008B78"/>
<path d="M234.83 327.176C232.575 330.736 233.281 333.317 235.346 334.649C237.412 335.981 240.075 335.519 242.331 331.931C244.586 328.344 243.554 321.768 243.554 321.768C243.554 321.768 237.113 323.616 234.83 327.176Z" fill="#008B78"/>
<path d="M228.988 322.965C228.988 327.177 230.971 328.971 233.444 328.971C235.918 328.971 237.874 327.177 237.874 322.965C237.874 318.752 233.444 313.725 233.444 313.725C233.444 313.725 228.988 318.752 228.988 322.965Z" fill="#008B78"/>
<path d="M261.381 327.556C263.202 330.274 262.631 332.448 260.974 333.508C259.316 334.568 257.223 334.215 255.538 331.388C254.434 328.821 254.094 325.99 254.56 323.235C257.202 323.989 259.571 325.489 261.381 327.556Z" fill="#008B78"/>
<path d="M262.659 327.556C260.865 330.274 261.408 332.448 263.066 333.508C264.724 334.568 266.817 334.215 268.501 331.388C269.606 328.821 269.945 325.99 269.48 323.235C266.84 323.994 264.473 325.494 262.659 327.556Z" fill="#008B78"/>
<path d="M257.984 324.294C257.984 327.664 259.588 329.077 261.544 329.077C263.501 329.077 265.077 327.664 265.077 324.294C264.629 321.552 263.403 318.996 261.544 316.93C259.675 318.992 258.439 321.548 257.984 324.294Z" fill="#008B78"/>
<path d="M347.204 325.682C349.568 329.378 348.835 332.068 346.688 333.427C344.541 334.786 341.796 334.351 339.432 330.709C337.067 327.068 338.154 320.165 338.154 320.165C338.154 320.165 344.758 322.122 347.204 325.682Z" fill="#1F3857"/>
<path d="M348.862 325.682C346.525 329.378 347.258 332.068 349.405 333.427C351.552 334.786 354.297 334.351 356.634 330.709C358.971 327.068 357.911 320.165 357.911 320.165C357.911 320.165 351.226 322.122 348.862 325.682Z" fill="#1F3857"/>
<path d="M342.802 321.333C342.802 325.708 344.868 327.556 347.422 327.556C349.977 327.556 352.015 325.708 352.015 321.333C352.015 316.957 347.422 311.739 347.422 311.739C347.422 311.739 342.802 316.957 342.802 321.333Z" fill="#1F3857"/>
<path d="M318.778 327.556C320.599 330.274 320.028 332.448 318.37 333.508C316.713 334.568 314.62 334.215 312.935 331.388C311.831 328.821 311.491 325.99 311.957 323.235C314.599 323.989 316.968 325.489 318.778 327.556Z" fill="#008B78"/>
<path d="M320.055 327.556C318.234 330.274 318.805 332.448 320.463 333.508C322.121 334.568 324.213 334.215 326.034 331.388C327.138 328.821 327.478 325.99 327.012 323.235C324.321 323.965 321.902 325.467 320.055 327.556Z" fill="#008B78"/>
<path d="M315.381 324.294C315.381 327.664 316.984 329.077 318.941 329.077C320.898 329.077 322.474 327.664 322.474 324.294C322.026 321.552 320.8 318.996 318.941 316.93C317.072 318.992 315.836 321.548 315.381 324.294Z" fill="#008B78"/>
<path d="M285.161 324.84C286.275 329.351 288.911 330.764 291.547 330.085C294.183 329.405 295.841 326.959 294.7 322.448C293.558 317.937 287.443 313.725 287.443 313.725C287.443 313.725 284.019 320.328 285.161 324.84Z" fill="#008B78"/>
<path d="M292.797 325.681C290.569 329.785 291.547 332.584 293.938 333.834C296.33 335.084 299.238 334.405 301.439 330.301C303.64 326.198 301.983 318.969 301.983 318.969C301.983 318.969 294.998 321.578 292.797 325.681Z" fill="#008B78"/>
<path d="M288.884 325.139C292.471 328.129 292.607 331.091 290.895 333.292C289.183 335.493 286.221 335.819 282.606 332.857C278.992 329.895 277.877 322.53 277.877 322.53C277.877 322.53 285.297 322.123 288.884 325.139Z" fill="#008B78"/>
<path d="M367.803 354.271V363.864C367.803 364.584 367.517 365.276 367.007 365.785C366.498 366.295 365.806 366.581 365.086 366.581H335.926V356.961H364.977C365.341 356.976 365.704 356.917 366.044 356.789C366.385 356.66 366.696 356.465 366.96 356.214C367.223 355.963 367.434 355.662 367.579 355.328C367.724 354.994 367.8 354.634 367.803 354.271Z" fill="#1F3857"/>
<path d="M335.926 357.07V366.691H217.628C216.907 366.691 216.216 366.404 215.706 365.895C215.196 365.385 214.91 364.694 214.91 363.973V354.38C214.91 355.101 215.196 355.792 215.706 356.302C216.216 356.811 216.907 357.098 217.628 357.098L335.926 357.07Z" fill="#A85660"/>
<path d="M367.803 333.782V354.272C367.803 354.993 367.517 355.684 367.007 356.194C366.498 356.704 365.806 356.99 365.086 356.99H335.926V330.901H364.977C365.357 330.885 365.736 330.949 366.09 331.089C366.444 331.229 366.764 331.441 367.031 331.713C367.297 331.984 367.503 332.309 367.637 332.665C367.77 333.021 367.826 333.402 367.803 333.782Z" fill="#9BB1C6"/>
<path d="M335.926 330.979V357.069H217.628C216.907 357.069 216.216 356.782 215.706 356.273C215.196 355.763 214.91 355.072 214.91 354.351V333.86C214.91 333.139 215.196 332.448 215.706 331.938C216.216 331.429 216.907 331.143 217.628 331.143L335.926 330.979Z" fill="#FF8F15"/>
<path d="M228.308 366.691H224.286V440.176H228.308V366.691Z" fill="#FF8F15"/>
<path d="M265.213 366.691H261.191V440.176H265.213V366.691Z" fill="#FF8F15"/>
<path d="M321.441 366.691H317.419V440.176H321.441V366.691Z" fill="#7F5155"/>
<path d="M358.346 366.691H354.324V440.176H358.346V366.691Z" fill="#1F3857"/>
<path d="M483.358 327.176C485.64 330.736 484.934 333.317 482.868 334.649C480.803 335.981 478.14 335.519 475.884 331.931C473.629 328.344 474.634 321.768 474.634 321.768C474.634 321.768 481.184 323.616 483.358 327.176Z" fill="#1F3857"/>
<path d="M485.042 327.176C482.787 330.736 483.493 333.317 485.559 334.649C487.624 335.981 490.26 335.519 492.543 331.931C494.826 328.344 493.766 321.768 493.766 321.768C493.766 321.768 487.325 323.616 485.042 327.176Z" fill="#1F3857"/>
<path d="M479.2 322.965C479.2 327.177 481.184 328.971 483.629 328.971C486.075 328.971 488.086 327.177 488.086 322.965C488.086 318.752 483.629 313.725 483.629 313.725C483.629 313.725 479.2 318.752 479.2 322.965Z" fill="#1F3857"/>
<path d="M511.593 327.556C513.414 330.274 512.843 332.448 511.185 333.508C509.528 334.568 507.435 334.215 505.614 331.388C504.51 328.821 504.17 325.99 504.636 323.235C507.327 323.965 509.746 325.467 511.593 327.556Z" fill="#1F3857"/>
<path d="M512.871 327.556C511.05 330.274 511.621 332.448 513.279 333.508C514.936 334.568 517.029 334.215 518.85 331.388C519.954 328.821 520.294 325.99 519.828 323.235C517.139 323.971 514.722 325.472 512.871 327.556Z" fill="#1F3857"/>
<path d="M508.197 324.294C508.197 327.664 509.8 329.077 511.757 329.077C513.713 329.077 515.29 327.664 515.29 324.294C514.841 321.552 513.615 318.996 511.757 316.93C509.887 318.992 508.651 321.548 508.197 324.294Z" fill="#1F3857"/>
<path d="M597.498 325.682C599.862 329.378 599.128 332.068 596.982 333.427C594.835 334.786 592.09 334.351 589.725 330.709C587.361 327.068 588.448 320.165 588.448 320.165C588.448 320.165 595.079 322.122 597.498 325.682Z" fill="#1F3857"/>
<path d="M599.074 325.682C596.737 329.378 597.471 332.068 599.617 333.427C601.764 334.786 604.509 334.351 606.846 330.709C609.184 327.068 608.124 320.165 608.124 320.165C608.124 320.165 601.438 322.122 599.074 325.682Z" fill="#1F3857"/>
<path d="M593.013 321.333C593.013 325.708 595.079 327.556 597.633 327.556C600.188 327.556 602.226 325.708 602.226 321.333C602.226 316.957 597.633 311.739 597.633 311.739C597.633 311.739 593.013 316.957 593.013 321.333Z" fill="#1F3857"/>
<path d="M568.99 327.556C570.811 330.274 570.24 332.448 568.582 333.508C566.925 334.568 564.832 334.215 563.011 331.388C561.907 328.821 561.567 325.99 562.033 323.235C564.722 323.971 567.139 325.472 568.99 327.556Z" fill="#1F3857"/>
<path d="M570.322 327.556C568.501 330.274 569.072 332.448 570.73 333.508C572.387 334.568 574.48 334.215 576.301 331.388C577.405 328.821 577.745 325.99 577.279 323.235C574.588 323.965 572.169 325.467 570.322 327.556Z" fill="#1F3857"/>
<path d="M565.593 324.294C565.593 327.664 567.197 329.077 569.153 329.077C571.11 329.077 572.686 327.664 572.686 324.294C572.238 321.552 571.012 318.996 569.153 316.93C567.284 318.992 566.048 321.548 565.593 324.294Z" fill="#1F3857"/>
<path d="M535.372 324.84C536.487 329.351 539.123 330.764 541.759 330.085C544.395 329.405 546.053 326.959 544.911 322.448C543.77 317.937 537.628 313.725 537.628 313.725C537.628 313.725 534.231 320.328 535.372 324.84Z" fill="#1F3857"/>
<path d="M543.145 325.681C540.917 329.785 541.895 332.584 544.287 333.834C546.678 335.084 549.586 334.405 551.787 330.301C553.989 326.198 552.331 318.969 552.331 318.969C552.331 318.969 545.211 321.578 543.145 325.681Z" fill="#1F3857"/>
<path d="M539.096 325.139C542.683 328.129 542.819 331.091 541.107 333.292C539.395 335.493 536.433 335.819 532.818 332.857C529.204 329.895 528.09 322.53 528.09 322.53C528.09 322.53 535.509 322.123 539.096 325.139Z" fill="#1F3857"/>
<path d="M618.016 354.271V363.864C618.016 364.584 617.729 365.276 617.22 365.785C616.71 366.295 616.019 366.581 615.298 366.581H467.839C467.119 366.581 466.427 366.295 465.918 365.785C465.408 365.276 465.122 364.584 465.122 363.864V354.271C465.122 354.991 465.408 355.683 465.918 356.192C466.427 356.702 467.119 356.988 467.839 356.988H615.189C615.555 357.003 615.92 356.943 616.263 356.813C616.605 356.683 616.918 356.486 617.182 356.232C617.446 355.978 617.656 355.673 617.799 355.336C617.942 354.999 618.016 354.637 618.016 354.271Z" fill="#1F3857"/>
<path d="M615.189 330.979H467.839C466.278 330.979 465.013 332.245 465.013 333.806V354.27C465.013 355.83 466.278 357.096 467.839 357.096H615.189C616.75 357.096 618.015 355.83 618.015 354.27V333.806C618.015 332.245 616.75 330.979 615.189 330.979Z" fill="#9BB1C6"/>
<path d="M478.493 366.691H474.47V440.176H478.493V366.691Z" fill="#1F3857"/>
<path d="M515.425 366.691H511.403V440.176H515.425V366.691Z" fill="#1F3857"/>
<path d="M571.626 366.691H567.604V440.176H571.626V366.691Z" fill="#1F3857"/>
<path d="M608.558 366.691H604.536V440.176H608.558V366.691Z" fill="#1F3857"/>
<path d="M714.166 327.176C716.449 330.736 715.742 333.317 713.677 334.649C711.611 335.981 708.948 335.519 706.665 331.931C704.383 328.344 705.442 321.768 705.442 321.768C705.442 321.768 711.91 323.616 714.166 327.176Z" fill="#1F3857"/>
<path d="M715.769 327.176C713.513 330.736 714.22 333.317 716.285 334.649C718.351 335.981 720.987 335.519 723.27 331.931C725.552 328.344 724.493 321.768 724.493 321.768C724.493 321.768 718.052 323.616 715.769 327.176Z" fill="#1F3857"/>
<path d="M709.926 322.965C709.926 327.177 711.91 328.971 714.356 328.971C716.802 328.971 718.813 327.177 718.813 322.965C718.813 318.752 714.356 313.725 714.356 313.725C714.356 313.725 709.926 318.752 709.926 322.965Z" fill="#1F3857"/>
<path d="M742.32 327.556C744.141 330.274 743.571 332.448 741.913 333.508C740.255 334.568 738.162 334.215 736.342 331.388C735.237 328.821 734.898 325.99 735.363 323.235C738.055 323.965 740.473 325.467 742.32 327.556Z" fill="#1F3857"/>
<path d="M743.597 327.556C741.776 330.274 742.347 332.448 744.005 333.508C745.663 334.568 747.755 334.215 749.44 331.388C750.544 328.821 750.884 325.99 750.418 323.235C747.776 323.989 745.407 325.489 743.597 327.556Z" fill="#1F3857"/>
<path d="M738.814 324.294C738.814 327.664 740.417 329.077 742.374 329.077C744.331 329.077 745.907 327.664 745.907 324.294C745.459 321.552 744.233 318.996 742.374 316.93C740.504 318.992 739.268 321.548 738.814 324.294Z" fill="#1F3857"/>
<path d="M828.143 325.682C830.507 329.378 829.773 332.068 827.626 333.427C825.479 334.786 822.735 334.351 820.37 330.709C818.006 327.068 819.093 320.165 819.093 320.165C819.093 320.165 825.778 322.122 828.143 325.682Z" fill="#1F3857"/>
<path d="M829.801 325.682C827.437 329.378 828.17 332.068 830.317 333.427C832.464 334.786 835.236 334.351 837.573 330.709C839.91 327.068 838.851 320.165 838.851 320.165C838.851 320.165 832.165 322.122 829.801 325.682Z" fill="#1F3857"/>
<path d="M823.74 321.333C823.74 325.708 825.805 327.556 828.333 327.556C830.86 327.556 832.953 325.708 832.953 321.333C832.953 316.957 828.333 311.739 828.333 311.739C828.333 311.739 823.74 316.957 823.74 321.333Z" fill="#1F3857"/>
<path d="M799.716 327.556C801.51 330.274 800.967 332.448 799.309 333.508C797.651 334.568 795.558 334.215 793.738 331.388C792.633 328.821 792.294 325.99 792.759 323.235C795.448 323.971 797.865 325.472 799.716 327.556Z" fill="#1F3857"/>
<path d="M800.994 327.556C799.173 330.274 799.744 332.448 801.401 333.508C803.059 334.568 805.152 334.215 806.837 331.388C807.959 328.827 808.309 325.993 807.842 323.235C805.19 323.984 802.811 325.485 800.994 327.556Z" fill="#1F3857"/>
<path d="M796.32 324.294C796.32 327.664 797.896 329.077 799.88 329.077C801.864 329.077 803.413 327.664 803.413 324.294C802.964 321.552 801.738 318.996 799.88 316.93C798.01 318.992 796.774 321.548 796.32 324.294Z" fill="#1F3857"/>
<path d="M765.991 324.84C767.132 329.351 769.768 330.764 772.404 330.085C775.041 329.405 776.698 326.959 775.557 322.448C774.415 317.937 768.274 313.725 768.274 313.725C768.274 313.725 764.958 320.328 765.991 324.84Z" fill="#1F3857"/>
<path d="M773.709 325.681C771.507 329.785 772.486 332.584 774.877 333.834C777.269 335.084 780.313 334.405 782.378 330.301C784.443 326.198 782.922 318.969 782.922 318.969C782.922 318.969 775.937 321.578 773.709 325.681Z" fill="#1F3857"/>
<path d="M769.823 325.139C773.41 328.129 773.546 331.091 771.806 333.292C770.067 335.493 767.132 335.819 763.654 332.857C760.175 329.895 758.925 322.53 758.925 322.53C758.925 322.53 766.235 322.123 769.823 325.139Z" fill="#1F3857"/>
<path d="M848.743 354.271V363.864C848.743 364.584 848.456 365.276 847.947 365.785C847.437 366.295 846.746 366.581 846.025 366.581H698.567C697.846 366.581 697.154 366.295 696.645 365.785C696.135 365.276 695.849 364.584 695.849 363.864V354.271C695.849 354.991 696.135 355.683 696.645 356.192C697.154 356.702 697.846 356.988 698.567 356.988H845.916C846.282 357.003 846.647 356.943 846.99 356.813C847.332 356.683 847.645 356.486 847.909 356.232C848.173 355.978 848.383 355.673 848.526 355.336C848.669 354.999 848.743 354.637 848.743 354.271Z" fill="#1F3857"/>
<path d="M845.916 330.979H698.566C697.005 330.979 695.74 332.245 695.74 333.806V354.27C695.74 355.83 697.005 357.096 698.566 357.096H845.916C847.477 357.096 848.743 355.83 848.743 354.27V333.806C848.743 332.245 847.477 330.979 845.916 330.979Z" fill="#9BB1C6"/>
<path d="M709.22 366.691H705.198V440.176H709.22V366.691Z" fill="#1F3857"/>
<path d="M746.152 366.691H742.13V440.176H746.152V366.691Z" fill="#1F3857"/>
<path d="M802.353 366.691H798.331V440.176H802.353V366.691Z" fill="#1F3857"/>
<path d="M839.286 366.691H835.263V440.176H839.286V366.691Z" fill="#1F3857"/>
<path d="M168.113 282.307V440.174H0V282.307C-2.91167e-05 260.052 8.83149 238.706 24.5555 222.957C40.2796 207.207 61.6109 198.341 83.866 198.305C94.9179 198.273 105.867 200.422 116.087 204.629C126.307 208.836 135.596 215.018 143.423 222.822C151.249 230.625 157.458 239.897 161.695 250.104C165.932 260.312 168.113 271.255 168.113 282.307Z" fill="#9BB1C6"/>
<path d="M4.3208 435.853V282.307C4.70635 261.433 13.2693 241.544 28.1679 226.918C43.0664 212.292 63.1102 204.098 83.9881 204.098C104.866 204.098 124.91 212.292 139.808 226.918C154.707 241.544 163.27 261.433 163.655 282.307V435.853H4.3208Z" fill="#E5EBF1"/>
<path d="M2.14697 283.342L2.14697 287.663H164.743V283.342H2.14697Z" fill="#9BB1C6"/>
<path d="M2.17407 370.415L2.17407 374.736H164.77V370.415H2.17407Z" fill="#9BB1C6"/>
<path d="M85.5234 200.346H81.3926V440.176H85.5234V200.346Z" fill="#9BB1C6"/>
<path opacity="0.5" d="M836.214 161.209H394.926C378.573 143.126 358.608 128.676 336.32 118.794C314.033 108.912 289.919 103.817 265.539 103.84H706.828C731.208 103.817 755.321 108.912 777.609 118.794C799.896 128.676 819.862 143.126 836.214 161.209Z" fill="#E5EBF1"/>
<path opacity="0.5" d="M790.449 125.146H349.188C323.541 111.122 294.77 103.793 265.539 103.84H706.828C736.05 103.798 764.81 111.126 790.449 125.146Z" fill="#E5EBF1"/>
<path d="M658.318 278.449V440.175H655.437V278.449C655.387 232.538 637.127 188.521 604.662 156.057C572.198 123.593 528.182 105.332 482.27 105.282C481.888 105.282 481.522 105.13 481.252 104.86C480.982 104.59 480.83 104.224 480.83 103.842C480.83 103.46 480.982 103.093 481.252 102.823C481.522 102.553 481.888 102.401 482.27 102.401C489.848 102.402 497.418 102.883 504.935 103.842C547.358 109.326 586.33 130.077 614.561 162.215C642.792 194.352 658.347 235.673 658.318 278.449Z" fill="#9BB1C6"/>
<path d="M441.587 278.449V440.175H438.707V278.449C438.657 232.651 420.486 188.732 388.162 156.287C355.839 123.841 311.99 105.505 266.191 105.282H265.539C265.157 105.282 264.791 105.13 264.521 104.86C264.251 104.59 264.099 104.224 264.099 103.842C264.099 103.46 264.251 103.093 264.521 102.823C264.791 102.553 265.157 102.401 265.539 102.401C273.117 102.402 280.687 102.883 288.204 103.842C330.627 109.326 369.599 130.077 397.83 162.215C426.061 194.352 441.616 235.673 441.587 278.449Z" fill="#9BB1C6"/>
<path d="M882.848 278.449V440.175H880.131V278.449C880.08 232.538 861.82 188.521 829.355 156.057C796.891 123.593 752.875 105.332 706.963 105.282C706.581 105.282 706.215 105.13 705.945 104.86C705.675 104.59 705.523 104.224 705.523 103.842C705.523 103.46 705.675 103.093 705.945 102.823C706.215 102.553 706.581 102.401 706.963 102.401C730.074 102.405 752.957 106.962 774.305 115.813C795.653 124.663 815.049 137.633 831.382 153.982C847.716 170.331 860.669 189.739 869.499 211.095C878.33 232.452 882.866 255.339 882.848 278.449Z" fill="#9BB1C6"/>
<path d="M149.551 476.999C169.678 476.999 185.995 473.751 185.995 469.743C185.995 465.736 169.678 462.487 149.551 462.487C129.424 462.487 113.108 465.736 113.108 469.743C113.108 473.751 129.424 476.999 149.551 476.999Z" fill="#008B78"/>
<path d="M142.485 469.66C142.485 469.66 171.89 448.218 168.112 419.601C165.992 403.703 157.785 397.452 153.6 385.957C140.012 348.535 181.238 321.712 196.919 344.975C214.828 371.526 163.845 383.456 185.288 408.622C206.73 433.787 166.971 446.505 160.829 469.904L142.485 469.66Z" fill="#65935F"/>
<path d="M156.834 469.907C156.834 469.907 184.744 419.223 138.463 395.905C83.92 368.403 153.817 330.682 113.542 311.985C63.3475 288.804 32.8014 393.514 90.6325 408.407C146.072 422.565 138.626 469.907 138.626 469.907H156.834Z" fill="#008B78"/>
<path d="M148.22 469.907C148.22 469.907 158.139 443.736 130.093 440.774C102.047 437.812 87.9699 415.119 95.2531 391.612C102.536 368.104 45.6292 380.904 59.4076 409.766C73.186 438.627 136.126 439.442 136.126 469.907H148.22Z" fill="#9FD098"/>
<path d="M105.607 349.678C105.104 350.457 104.931 351.403 105.125 352.31C105.318 353.216 105.863 354.009 106.64 354.515C107.411 355.019 108.351 355.196 109.253 355.007C110.154 354.819 110.945 354.28 111.45 353.51C112.195 350.98 112.507 348.343 112.374 345.71C109.914 346.648 107.627 347.989 105.607 349.678Z" fill="#9FD098"/>
<path d="M72.1803 364.977C72.4497 365.546 72.8287 366.056 73.2954 366.479C73.7622 366.902 74.3077 367.229 74.9007 367.441C75.4937 367.653 76.1227 367.746 76.7517 367.715C77.3808 367.684 77.9975 367.529 78.5667 367.259C79.1359 366.99 79.6465 366.611 80.0693 366.144C80.4921 365.678 80.8188 365.132 81.0308 364.539C81.2428 363.946 81.3359 363.317 81.3048 362.688C81.2737 362.059 81.119 361.442 80.8495 360.873C79.7081 358.482 72.3705 354.215 72.3705 354.215C72.3705 354.215 71.0389 362.585 72.1803 364.977Z" fill="#9FD098"/>
<path d="M127.728 407.155C128.195 408.066 128.998 408.761 129.967 409.091C130.937 409.42 131.997 409.36 132.922 408.922C133.848 408.484 134.567 407.702 134.926 406.744C135.286 405.785 135.258 404.724 134.849 403.785C133.925 401.828 127.892 398.35 127.892 398.35C127.892 398.35 126.804 405.198 127.728 407.155Z" fill="#9FD098"/>
<path d="M136.479 436.532C136.767 436.759 137.096 436.927 137.448 437.026C137.8 437.126 138.168 437.155 138.532 437.112C138.895 437.069 139.247 436.955 139.566 436.776C139.885 436.598 140.166 436.358 140.393 436.07C140.619 435.783 140.787 435.454 140.887 435.102C140.986 434.75 141.015 434.381 140.972 434.018C140.929 433.655 140.815 433.303 140.637 432.984C140.458 432.665 140.218 432.384 139.931 432.157C137.984 431.37 135.915 430.929 133.816 430.853C134.375 432.883 135.276 434.804 136.479 436.532Z" fill="#9FD098"/>
<path d="M144.632 454.143C144.74 454.367 144.891 454.568 145.076 454.734C145.262 454.899 145.479 455.026 145.714 455.107C145.949 455.188 146.198 455.221 146.446 455.205C146.695 455.189 146.937 455.123 147.16 455.013C147.608 454.79 147.95 454.4 148.113 453.927C148.276 453.454 148.246 452.936 148.029 452.485C147.066 451.398 145.927 450.479 144.66 449.768C144.394 451.213 144.385 452.694 144.632 454.143Z" fill="#008B78"/>
<path d="M123.543 447.377C123.845 447.615 124.227 447.728 124.609 447.691C124.992 447.655 125.346 447.473 125.597 447.183C125.849 446.892 125.979 446.517 125.961 446.133C125.943 445.749 125.778 445.387 125.5 445.122C124.468 444.659 123.366 444.374 122.239 444.279C122.498 445.378 122.939 446.425 123.543 447.377Z" fill="#008B78"/>
<path d="M84.3011 426.343C84.4046 426.591 84.5559 426.816 84.7465 427.005C84.937 427.195 85.163 427.345 85.4116 427.447C85.6601 427.55 85.9264 427.602 86.1952 427.601C86.4639 427.6 86.7299 427.547 86.978 427.443C87.226 427.34 87.4512 427.188 87.6408 426.998C87.8303 426.807 87.9805 426.581 88.0827 426.333C88.1849 426.084 88.2371 425.818 88.2364 425.549C88.2357 425.28 88.1821 425.014 88.0786 424.766C87.6438 423.707 84.6 421.723 84.6 421.723C84.2431 423.235 84.142 424.797 84.3011 426.343Z" fill="#008B78"/>
<path d="M80.0344 394.928C79.9827 395.295 80.0038 395.669 80.0967 396.029C80.1896 396.388 80.3523 396.726 80.5757 397.022C80.799 397.319 81.0785 397.569 81.3983 397.757C81.7181 397.946 82.0719 398.069 82.4395 398.121C82.8071 398.173 83.1813 398.151 83.5407 398.059C83.9001 397.966 84.2377 397.803 84.5343 397.58C84.8308 397.356 85.0804 397.077 85.2689 396.757C85.4574 396.437 85.581 396.083 85.6328 395.716C85.3057 393.606 84.6258 391.567 83.6217 389.683C82.1403 391.217 80.9277 392.991 80.0344 394.928Z" fill="#008B78"/>
<path d="M167.759 369.734C167.707 370.102 167.728 370.476 167.821 370.835C167.914 371.195 168.077 371.533 168.3 371.829C168.523 372.126 168.803 372.375 169.123 372.564C169.443 372.752 169.796 372.876 170.164 372.928C170.531 372.979 170.906 372.958 171.265 372.865C171.625 372.772 171.962 372.61 172.259 372.386C172.555 372.163 172.805 371.883 172.993 371.564C173.182 371.244 173.305 370.89 173.357 370.522C173.039 368.414 172.368 366.375 171.373 364.489C169.882 366.022 168.66 367.795 167.759 369.734Z" fill="#008B78"/>
<path d="M156.046 382.726C156.076 382.967 156.154 383.199 156.274 383.41C156.394 383.621 156.555 383.807 156.747 383.955C156.939 384.104 157.158 384.214 157.392 384.278C157.626 384.342 157.871 384.36 158.112 384.329C158.352 384.299 158.585 384.222 158.796 384.101C159.007 383.981 159.192 383.821 159.341 383.629C159.49 383.437 159.6 383.218 159.664 382.983C159.728 382.749 159.745 382.505 159.715 382.264C159.158 380.991 158.386 379.823 157.432 378.812C156.749 380.028 156.28 381.352 156.046 382.726Z" fill="#008B78"/>
<path d="M179.282 433.949C179.117 434.146 178.994 434.374 178.921 434.62C178.847 434.866 178.825 435.124 178.856 435.379C178.886 435.634 178.969 435.879 179.098 436.101C179.228 436.323 179.401 436.515 179.608 436.667C179.806 436.831 180.036 436.952 180.283 437.023C180.53 437.094 180.789 437.114 181.043 437.08C181.298 437.047 181.544 436.962 181.764 436.83C181.985 436.698 182.176 436.523 182.326 436.314C182.818 435.01 183.085 433.631 183.114 432.237C181.747 432.583 180.451 433.163 179.282 433.949Z" fill="#008B78"/>
<path d="M169.037 344.541C168.924 344.738 168.852 344.954 168.823 345.179C168.794 345.403 168.81 345.631 168.869 345.849C168.928 346.067 169.03 346.272 169.168 346.451C169.307 346.63 169.479 346.78 169.675 346.892C169.872 347.005 170.088 347.077 170.312 347.106C170.537 347.135 170.765 347.119 170.983 347.06C171.201 347 171.406 346.899 171.585 346.76C171.764 346.622 171.914 346.45 172.026 346.254C172.311 344.988 172.385 343.684 172.243 342.395C171.062 342.926 169.978 343.651 169.037 344.541Z" fill="#008B78"/>
<path d="M190.805 357.858C190.505 358.077 190.251 358.354 190.059 358.671C189.866 358.989 189.737 359.341 189.68 359.708C189.623 360.075 189.64 360.45 189.728 360.811C189.816 361.172 189.974 361.512 190.193 361.812C190.413 362.112 190.689 362.365 191.007 362.558C191.324 362.751 191.677 362.88 192.044 362.937C192.411 362.993 192.786 362.977 193.147 362.889C193.508 362.801 193.848 362.643 194.148 362.423C195.424 360.724 196.407 358.822 197.055 356.798C194.927 356.793 192.813 357.151 190.805 357.858Z" fill="#008B78"/>
<path d="M176.483 408.84C176.122 409.258 175.943 409.802 175.983 410.352C176.024 410.903 176.282 411.414 176.7 411.775C177.118 412.135 177.662 412.315 178.213 412.274C178.763 412.233 179.275 411.975 179.635 411.557C180.241 410.134 180.6 408.617 180.695 407.073C179.201 407.42 177.777 408.017 176.483 408.84Z" fill="#008B78"/>
<path d="M649.133 19.3231C649.003 19.3194 648.879 19.2714 648.78 19.1873C648.731 19.1392 648.693 19.0821 648.667 19.0191C648.64 18.9562 648.627 18.8886 648.627 18.8204C648.627 18.7522 648.64 18.6846 648.667 18.6216C648.693 18.5587 648.731 18.5015 648.78 18.4535C653.1 13.2899 658.298 8.92923 664.134 5.57195C672.015 1.14221 685.685 0.136682 695.74 0.000800647C695.809 -0.00314295 695.878 0.00751332 695.943 0.0320673C696.007 0.0566213 696.065 0.0945265 696.114 0.143284C696.163 0.192041 696.201 0.250527 696.225 0.31496C696.25 0.379393 696.261 0.448316 696.257 0.517157C696.257 0.64952 696.206 0.776902 696.115 0.872991C696.024 0.969081 695.9 1.02655 695.768 1.03351C687.615 1.03351 672.749 1.93033 664.651 6.46877C658.902 9.75926 653.785 14.0476 649.541 19.1329C649.489 19.1906 649.426 19.2372 649.356 19.2699C649.286 19.3026 649.21 19.3207 649.133 19.3231Z" fill="#F7AA97"/>
</g>
<g style="mix-blend-mode:screen" opacity="0.5">
<g style="mix-blend-mode:screen" opacity="0.5">
<path d="M387.369 131.269C398.359 125.181 412.38 124.127 424.583 126.673C440.614 130.015 448.574 129.693 464.605 133.035C474.059 135.007 482.343 147.679 491.055 151.98C501.52 157.151 503.657 161.822 509.617 172.185C511.531 175.517 518.708 185.812 519.117 189.665C519.849 196.217 518.329 199.875 519.082 206.422C519.935 213.902 520.657 218.504 521.526 225.984C522.784 236.817 516.592 242.452 517.092 253.353C517.309 258.013 514.364 264.159 513.905 268.798C513.561 272.272 500.662 281.154 498.752 284.011C490.232 296.662 490.742 299.545 477.231 305.908C471.489 308.612 469.499 314.121 463.276 315.159C457.857 316.066 452.321 315.649 446.856 315.133C436.028 314.105 429.391 317.536 418.663 315.697C409.572 314.115 397.824 315.17 388.606 315.697C384.308 315.929 377.05 314.295 372.833 313.367C369.111 312.544 359.034 308.095 355.767 306.034C348.751 301.659 341.589 293.91 338.523 286.003C337.513 283.399 337.22 271.966 329.937 261.17C323.255 251.281 324.508 251.408 322.114 230.017C320.765 217.998 323.432 202.606 330.114 192.696C334.564 186.112 336.24 179.992 337.15 171.99C337.493 169.001 336.932 165.949 337.387 162.971C338.725 154.263 347.716 149.613 355.57 146.366C363.423 143.119 370.999 139.345 379.005 136.683C385.005 134.685 382.838 133.784 387.369 131.269ZM333.154 169.117C332.649 165.77 327.442 165.912 326.811 169.117C326.594 170.224 325.629 171.431 325.114 172.465C324.44 173.814 323.728 175.139 322.977 176.439C321.533 178.927 319.992 181.31 318.881 183.988C318.093 185.896 318.073 187.989 319.573 189.554C320.831 190.867 323.381 191.494 324.907 190.271C328.003 187.778 330.69 184.852 332.316 181.073C333.171 179.218 333.732 177.232 333.978 175.19C334.225 172.892 333.493 171.3 333.154 169.117ZM358.474 138.755C358.474 140.953 356.958 142.091 355.135 142.756C353.828 143.188 352.435 143.257 351.095 142.956C349.771 142.719 349.236 140.6 350.271 139.709C351.231 138.892 351.953 138.217 352.852 137.537C352.964 137.449 353.08 137.368 353.201 137.294C353.621 136.905 354.112 136.607 354.645 136.419C355.332 136.201 356.065 136.201 356.751 136.419C357.241 136.564 357.672 136.869 357.982 137.29C358.293 137.71 358.465 138.224 358.474 138.755ZM367.474 135.655C367.267 135.996 367.037 136.322 366.787 136.63C366.33 137.064 365.767 137.357 365.161 137.479C364.77 137.597 364.355 137.59 363.968 137.458C363.582 137.326 363.242 137.075 362.995 136.739C362.747 136.402 362.602 135.995 362.58 135.572C362.557 135.148 362.657 134.727 362.868 134.364C363.136 133.887 363.57 133.538 364.08 133.388C364.694 133.227 365.334 133.213 365.954 133.346C366.338 133.489 366.703 133.684 367.04 133.926C367.315 134.097 367.514 134.375 367.596 134.698C367.677 135.021 367.633 135.365 367.474 135.655ZM320.452 260.105C318.81 259.346 317.785 257.074 317.24 255.361C316.751 253.745 316.491 252.064 316.467 250.369C316.371 246.816 321.8 245.989 322.452 249.526C322.651 250.682 323.009 251.802 323.513 252.852C324.23 254.333 325.028 255.556 325.194 257.254C325.462 260.016 322.396 261.012 320.452 260.105ZM329.493 265.904C329.5 266.282 329.415 266.656 329.245 266.99C329.016 267.601 328.596 268.113 328.053 268.445C327.553 268.742 326.979 268.878 326.404 268.835C325.83 268.792 325.28 268.572 324.826 268.202C324.203 267.749 323.749 267.086 323.538 266.326C323.446 265.901 323.392 265.469 323.376 265.034C323.376 264.195 323.695 263.391 324.264 262.798C324.832 262.205 325.603 261.871 326.407 261.871C327.177 261.87 327.918 262.174 328.481 262.722C329.044 263.27 329.386 264.022 329.437 264.823C329.476 265.044 329.498 265.268 329.503 265.493C329.516 265.637 329.516 265.781 329.503 265.925L329.493 265.904ZM526.91 218.884C526.9 219.245 526.768 219.59 526.537 219.858C526.306 220.127 525.991 220.301 525.648 220.349C525.306 220.398 524.958 220.318 524.666 220.124C524.375 219.93 524.159 219.634 524.057 219.29C522.759 215.668 522.41 211.794 521.602 208.03C521.253 206.412 523.622 205.184 524.299 206.844C525.915 210.708 527.345 214.656 526.91 218.905V218.884ZM528.405 231.988C528.348 232.827 527.987 233.611 527.395 234.181C527.243 234.332 527.061 234.446 526.862 234.514C526.663 234.582 526.452 234.602 526.244 234.574C526.036 234.546 525.837 234.469 525.662 234.35C525.486 234.231 525.338 234.072 525.228 233.886C525.425 234.165 524.834 233.332 524.819 233.359C524.67 233.079 524.558 232.779 524.486 232.468C524.418 232.121 524.381 231.768 524.375 231.414C524.375 231.314 524.375 231.213 524.375 231.113C524.375 231.013 524.375 231.045 524.375 230.992C524.253 230.47 524.327 229.919 524.581 229.451C524.835 228.984 525.251 228.636 525.744 228.478C526.244 228.342 526.776 228.416 527.225 228.682C527.675 228.949 528.008 229.388 528.153 229.906C528.338 230.588 528.424 231.295 528.405 232.004V231.988ZM512.748 277.901C509.819 282.082 506.97 285.656 502.773 288.491C501.677 289.235 500.308 287.764 500.99 286.631C503.662 282.155 507.152 279.251 511.389 276.489C512.197 275.977 513.349 277.09 512.753 277.917L512.748 277.901ZM488.676 144.854C485.691 145.096 483.388 142.84 481.519 140.694C479.565 138.422 477.87 135.921 476.469 133.241C474.953 130.378 478.858 128.107 480.6 130.716C482.097 132.939 483.836 134.973 485.782 136.778C487.631 138.517 489.611 139.941 490.368 142.576C490.431 142.845 490.436 143.126 490.38 143.397C490.325 143.668 490.212 143.922 490.049 144.141C489.886 144.36 489.678 144.538 489.441 144.661C489.203 144.785 488.942 144.85 488.676 144.854ZM497.187 150.852C496.641 150.299 496.121 149.719 495.576 149.16C495.576 149.16 495.358 148.949 495.318 148.902C495.108 148.751 494.909 148.586 494.722 148.406C494.467 148.136 494.269 147.813 494.141 147.458C493.949 147.112 493.895 146.701 493.989 146.314C494.083 145.927 494.319 145.594 494.646 145.386C494.384 145.613 494.454 145.56 494.853 145.228C495.028 145.113 495.225 145.04 495.429 145.012C495.852 144.901 496.294 144.901 496.717 145.012C497.263 145.158 497.786 145.384 498.273 145.681C498.843 146.007 499.342 146.454 499.738 146.994C500.134 147.533 500.417 148.152 500.571 148.812C500.668 149.257 500.625 149.722 500.451 150.14C500.276 150.558 499.977 150.906 499.599 151.134C499.221 151.362 498.783 151.458 498.349 151.407C497.914 151.356 497.507 151.162 497.187 150.852ZM507.92 160.214C507.57 160.494 507.15 160.66 506.71 160.692C506.271 160.724 505.833 160.62 505.45 160.393C504.295 159.689 503.269 158.777 502.419 157.7C501.931 157.167 501.658 156.458 501.658 155.72C501.658 154.983 501.931 154.274 502.419 153.741C503.344 152.687 505.303 152.618 506.217 153.741C506.767 154.344 507.274 154.989 507.733 155.67C508.138 156.335 508.476 157.042 508.743 157.779C508.856 158.223 508.839 158.693 508.694 159.127C508.549 159.561 508.283 159.94 507.93 160.214H507.92Z" fill="#FF8F15"/>
</g>
</g>
<path d="M448.739 470.147C561.777 470.147 653.413 464.945 653.413 458.528C653.413 452.111 561.777 446.909 448.739 446.909C335.701 446.909 244.066 452.111 244.066 458.528C244.066 464.945 335.701 470.147 448.739 470.147Z" fill="#FF8F15" fill-opacity="0.1"/>
<path d="M489.958 437.969H488.442C488.442 384.872 497.603 334.969 514.238 297.454C530.958 259.744 553.277 238.977 577.083 238.977V240.558C529.041 240.558 489.958 329.116 489.958 437.969Z" fill="#1F3857"/>
<path d="M609.913 192.59C609.913 204.963 604.712 220.792 598.296 220.792C591.88 220.792 586.679 204.963 586.679 192.59C586.679 180.217 591.88 175.985 598.296 175.985C604.712 175.985 609.913 180.217 609.913 192.59Z" fill="#E6E6E6"/>
<path d="M655.503 245.372C643.777 247.193 628.01 244.153 627.066 237.53C626.122 230.907 640.358 223.209 652.084 221.388C663.81 219.567 668.586 224.314 669.53 230.937C670.474 237.56 667.229 243.551 655.503 245.372Z" fill="#E6E6E6"/>
<path d="M603.537 292.441C599.344 280.868 598.844 264.143 604.845 261.774C610.846 259.406 621.075 272.291 625.269 283.864C629.462 295.437 626.031 301.315 620.031 303.684C614.03 306.052 607.731 304.014 603.537 292.441Z" fill="#E6E6E6"/>
<path d="M597.9 246.328C589.765 250.196 584.722 246.499 582.004 240.273C581.941 240.128 581.879 239.984 581.82 239.838C581.7 239.547 581.588 239.255 581.483 238.964C579.412 233.164 580.493 227.378 588.058 223.781C595.888 220.058 610.326 225.803 611.4 226.24L611.402 226.241C611.443 226.257 611.464 226.266 611.464 226.266C611.464 226.266 606.035 242.46 597.9 246.328Z" fill="#008B78"/>
<path d="M583.069 239.271L590.389 240.769L582.458 239.549L581.82 239.839C581.7 239.548 581.588 239.256 581.483 238.964L589.816 235.539L589.878 235.506L589.893 235.508L590.68 235.184L595.013 228.12L591.262 234.923L591.103 235.01L597.4 232.422L602.197 225.857L598.498 231.952L611.4 226.24L611.444 226.221L611.402 226.241L601.323 230.963L606.85 232.6L600.45 231.36L594.903 233.884L601.627 234.67L594.087 234.256L591.004 235.659L600.448 236.95L589.928 236.149L583.069 239.271Z" fill="#3F3D56"/>
<path d="M284.141 198.387C284.141 210.76 289.342 226.588 295.757 226.588C302.173 226.588 307.374 210.76 307.374 198.387C307.374 186.014 302.173 181.782 295.757 181.782C289.342 181.782 284.141 186.014 284.141 198.387Z" fill="#E6E6E6"/>
<path d="M238.551 251.17C250.277 252.991 266.043 249.951 266.987 243.328C267.931 236.705 253.696 229.007 241.97 227.186C230.244 225.365 225.468 230.112 224.524 236.735C223.579 243.358 226.825 249.349 238.551 251.17Z" fill="#E6E6E6"/>
<path d="M290.516 298.24C294.709 286.667 295.209 269.942 289.208 267.573C283.207 265.205 272.978 278.09 268.785 289.663C264.591 301.236 268.022 307.114 274.023 309.483C280.024 311.851 286.323 309.813 290.516 298.24Z" fill="#E6E6E6"/>
<path d="M314.495 228.217C321.298 234.27 320.226 240.604 315.973 245.811C315.874 245.931 315.775 246.051 315.674 246.169C315.472 246.406 315.266 246.635 315.057 246.857C310.9 251.273 305.421 252.702 299.094 247.073C292.546 241.247 291.416 225.164 291.341 223.964L291.341 223.962C291.338 223.915 291.336 223.892 291.336 223.892C291.336 223.892 307.691 222.164 314.495 228.217Z" fill="#008B78"/>
<path d="M314.651 245.228L312.851 237.673L315.151 245.688L315.674 246.169C315.472 246.406 315.266 246.635 315.057 246.857L308.554 240.43L308.499 240.386L308.494 240.371L307.88 239.764L299.914 238.66L307.407 239.324L307.55 239.437L302.637 234.581L294.906 232.826L301.764 233.742L291.341 223.964L291.305 223.93L291.341 223.962L299.708 231.491L298.788 225.572L300.423 232.147L304.963 236.322L302.797 229.632L305.631 236.936L308.156 239.257L305.275 229.781L309.037 240.066L314.651 245.228Z" fill="#3F3D56"/>
<path d="M304.344 440.604V410.03C304.344 410.03 315.96 421.1 304.344 443.24" fill="#1F3857"/>
<path d="M304.727 439.811L312.959 410.47C312.959 410.47 321.127 424.5 304.018 442.341" fill="#1F3857"/>
<path d="M508.393 433.751V403.178C508.393 403.178 520.009 414.247 508.393 436.387" fill="#1F3857"/>
<path d="M508.776 432.959L517.008 403.617C517.008 403.617 525.176 417.648 508.067 435.488" fill="#1F3857"/>
<path d="M464.957 435.333V404.76C464.957 404.76 453.34 415.83 464.957 437.969" fill="#1F3857"/>
<path d="M464.573 434.54L456.341 405.198C456.341 405.198 448.173 419.229 465.283 437.069" fill="#1F3857"/>
<path d="M492.828 460.899C490.681 460.899 488.593 460.16 486.889 458.797C485.185 457.433 483.958 455.522 483.4 453.358L482.528 449.977C482.322 449.176 482.259 448.342 482.345 447.518L484.004 431.499C487.168 427.405 491.769 426.418 498.312 429.632L502.356 448.482C502.676 449.973 502.67 451.519 502.34 453.007C502.01 454.495 501.364 455.886 500.449 457.078C499.534 458.271 498.374 459.233 497.055 459.894C495.736 460.555 494.291 460.899 492.828 460.899Z" fill="#0F1F32"/>
<path d="M394.012 460.899C391.865 460.899 389.777 460.16 388.073 458.797C386.369 457.433 385.142 455.522 384.584 453.358L383.712 449.977C383.505 449.176 383.443 448.342 383.529 447.518L385.188 431.499C388.352 427.405 392.953 426.418 399.496 429.632L403.54 448.482C403.859 449.973 403.854 451.519 403.524 453.007C403.194 454.495 402.548 455.886 401.633 457.078C400.718 458.271 399.558 459.233 398.239 459.894C396.92 460.555 395.475 460.899 394.012 460.899Z" fill="#0F1F32"/>
<path d="M405.611 443.767H404.096C404.096 334.915 365.012 246.357 316.971 246.357V244.775C340.776 244.775 363.095 265.543 379.815 303.252C396.45 340.768 405.611 390.671 405.611 443.767Z" fill="#1F3857"/>
<path d="M427.666 151.736H427.666C433.417 151.736 438.933 154.121 443 158.365C447.067 162.61 449.352 168.367 449.352 174.369V196.536H405.98V174.369C405.98 171.397 406.541 168.454 407.63 165.708C408.72 162.962 410.318 160.467 412.331 158.365C414.345 156.264 416.736 154.597 419.367 153.459C421.998 152.322 424.818 151.736 427.666 151.736Z" fill="#1F3857"/>
<path d="M449.128 199.103C441.174 205.001 430.578 207.275 419.17 208.437C427.03 201.781 423.95 194.429 419.17 186.97L436.608 185.104C437.112 191.875 442.144 196.049 449.128 199.103Z" fill="#FFB8B8"/>
<path d="M452.705 269.569L401.285 262.102C405.453 253.907 408.252 245.989 407.27 238.839C406.747 235.266 406.791 231.627 407.399 228.069L407.726 226.248C408.407 222.743 409.706 219.401 411.557 216.392C413.622 212.919 412.909 207.701 412.016 202.37L424.089 200.503C430.75 204.035 438.229 201.682 445.998 197.236L460.306 198.636C459.337 225.247 457.205 249.655 452.705 269.569Z" fill="#E6E6E6"/>
<path d="M495.63 429.632L485.793 431.499L422.3 316.234L397.261 431.499L388.318 431.032C388.122 365.71 385.308 293.99 400.444 266.135C406.123 252.07 414.812 238.602 411.569 224.768C424.305 228.642 437.126 228.365 450.022 224.302C449.417 240.901 449.991 256.453 452.258 270.501L495.63 429.632Z" fill="#FF8F15"/>
<path d="M425.43 192.569C433.579 192.569 440.185 185.674 440.185 177.169C440.185 168.664 433.579 161.77 425.43 161.77C417.281 161.77 410.675 168.664 410.675 177.169C410.675 185.674 417.281 192.569 425.43 192.569Z" fill="#FFB8B8"/>
<path d="M414.028 229.203C414.769 229.203 415.37 228.576 415.37 227.803C415.37 227.03 414.769 226.403 414.028 226.403C413.287 226.403 412.687 227.03 412.687 227.803C412.687 228.576 413.287 229.203 414.028 229.203Z" fill="#E6E6E6"/>
<path d="M448.01 229.203C448.751 229.203 449.352 228.576 449.352 227.803C449.352 227.03 448.751 226.403 448.01 226.403C447.27 226.403 446.669 227.03 446.669 227.803C446.669 228.576 447.27 229.203 448.01 229.203Z" fill="#E6E6E6"/>
<path d="M435.043 175.069L411.792 174.64V158.736H439.962L435.043 175.069Z" fill="#1F3857"/>
<path d="M444.433 196.069H434.149C437.95 186.592 437.615 176.594 434.149 166.203H444.433V196.069Z" fill="#1F3857"/>
<path d="M457.176 284.502L451.084 291.956C450.302 292.914 449.312 293.663 448.196 294.141C447.081 294.619 445.873 294.813 444.671 294.707C443.47 294.6 442.31 294.196 441.288 293.528C440.266 292.86 439.412 291.947 438.795 290.865C438.243 289.896 437.896 288.816 437.777 287.695C437.657 286.575 437.768 285.441 438.103 284.369C438.437 283.298 438.987 282.313 439.715 281.481C440.444 280.649 441.334 279.988 442.327 279.544L453.152 274.702L466.119 255.569L458.965 222.436L471.485 218.236L478.639 260.236L457.176 284.502Z" fill="#FFB8B8"/>
<path d="M410.227 287.992L416.319 295.447C417.102 296.404 418.092 297.153 419.207 297.631C420.323 298.11 421.531 298.303 422.733 298.197C423.934 298.09 425.094 297.686 426.116 297.018C427.138 296.35 427.992 295.437 428.609 294.355C429.16 293.386 429.508 292.306 429.627 291.186C429.747 290.065 429.636 288.931 429.301 287.86C428.967 286.788 428.417 285.803 427.689 284.971C426.96 284.139 426.07 283.479 425.077 283.035L414.252 278.192L401.285 259.059L408.439 225.927L395.919 221.727L388.765 263.726L410.227 287.992Z" fill="#FFB8B8"/>
<path d="M473.273 220.102C470.467 220.015 467.673 220.53 465.065 221.615C462.457 222.7 460.09 224.332 458.111 226.411L453.64 198.411L459.048 198.345C461.253 198.43 463.38 199.219 465.141 200.606C466.903 201.993 468.214 203.911 468.898 206.1L473.273 220.102Z" fill="#E6E6E6"/>
<path d="M394.131 223.593C396.937 223.506 399.731 224.021 402.339 225.106C404.947 226.191 407.314 227.823 409.293 229.902C414.468 221.71 415.218 212.147 413.764 201.902L408.356 201.836C406.151 201.921 404.024 202.711 402.262 204.097C400.501 205.484 399.19 207.402 398.505 209.592L394.131 223.593Z" fill="#E6E6E6"/>
<path d="M447.787 226.636H448.279L451.248 197.862C451.256 197.784 451.249 197.704 451.225 197.628C451.202 197.553 451.163 197.483 451.112 197.424C451.062 197.365 450.999 197.318 450.93 197.285C450.86 197.253 450.785 197.236 450.709 197.236H448.329C448.185 197.236 448.047 197.296 447.946 197.402C447.844 197.508 447.787 197.652 447.787 197.802V226.636Z" fill="#FF8F15"/>
<path d="M413.357 228.035H413.854L416.823 201.698C416.83 201.635 416.824 201.572 416.806 201.513C416.788 201.453 416.758 201.398 416.719 201.351C416.679 201.304 416.63 201.267 416.575 201.241C416.52 201.215 416.461 201.202 416.401 201.202H413.783C413.67 201.202 413.562 201.249 413.482 201.332C413.402 201.416 413.358 201.528 413.357 201.646V228.035Z" fill="#FF8F15"/>
<path d="M455.078 118H498.261C499.435 118 500.597 118.242 501.681 118.711C502.765 119.18 503.751 119.867 504.58 120.734C505.41 121.601 506.067 122.63 506.515 123.762C506.964 124.894 507.194 126.107 507.192 127.332V143.149C507.194 144.374 506.964 145.588 506.515 146.72C506.067 147.852 505.41 148.881 504.58 149.748C503.751 150.614 502.765 151.302 501.681 151.771C500.597 152.24 499.435 152.482 498.261 152.482H469.567L456.432 167.139L463.505 152.482H455.038C452.667 152.482 450.392 151.498 448.715 149.748C447.038 147.998 446.096 145.624 446.096 143.149V127.332C446.096 126.103 446.329 124.886 446.781 123.751C447.233 122.616 447.895 121.586 448.73 120.718C449.564 119.851 450.555 119.165 451.644 118.698C452.734 118.232 453.901 117.995 455.078 118Z" fill="#FF8F15"/>
<path opacity="0.7" d="M455.078 118H498.261C499.435 118 500.597 118.242 501.681 118.711C502.765 119.18 503.751 119.867 504.58 120.734C505.41 121.601 506.067 122.63 506.515 123.762C506.964 124.894 507.194 126.107 507.192 127.332V143.149C507.194 144.374 506.964 145.588 506.515 146.72C506.067 147.852 505.41 148.881 504.58 149.748C503.751 150.614 502.765 151.302 501.681 151.771C500.597 152.24 499.435 152.482 498.261 152.482H469.567L456.432 167.139L463.505 152.482H455.038C452.667 152.482 450.392 151.498 448.715 149.748C447.038 147.998 446.096 145.624 446.096 143.149V127.332C446.096 126.103 446.329 124.886 446.781 123.751C447.233 122.616 447.895 121.586 448.73 120.718C449.564 119.851 450.555 119.165 451.644 118.698C452.734 118.232 453.901 117.995 455.078 118Z" fill="white"/>
<path d="M457.19 134.366C457.152 133.301 457.419 132.249 457.958 131.344C458.497 130.439 459.282 129.723 460.213 129.287C461.145 128.851 462.18 128.716 463.185 128.898C464.191 129.08 465.122 129.572 465.858 130.31C466.594 131.048 467.102 131.999 467.317 133.04C467.532 134.082 467.443 135.166 467.064 136.155C466.684 137.144 466.029 137.992 465.185 138.59C464.34 139.188 463.343 139.509 462.323 139.512C461.657 139.546 460.992 139.438 460.367 139.195C459.743 138.951 459.173 138.577 458.692 138.095C458.212 137.613 457.83 137.034 457.572 136.392C457.314 135.751 457.184 135.061 457.19 134.366ZM466.051 134.366C466.059 133.589 465.845 132.828 465.438 132.179C465.03 131.53 464.446 131.022 463.76 130.72C463.075 130.418 462.319 130.335 461.589 130.483C460.859 130.631 460.187 131.002 459.659 131.55C459.132 132.098 458.773 132.796 458.627 133.558C458.481 134.319 458.556 135.109 458.842 135.826C459.127 136.543 459.611 137.155 460.231 137.584C460.851 138.013 461.579 138.24 462.323 138.236C462.815 138.252 463.305 138.163 463.763 137.974C464.22 137.786 464.637 137.501 464.986 137.139C465.335 136.777 465.609 136.344 465.792 135.867C465.976 135.39 466.064 134.879 466.051 134.366Z" fill="#FF8F15"/>
<path d="M468.668 135.589C468.648 134.801 468.853 134.026 469.257 133.36C469.661 132.695 470.246 132.171 470.937 131.854C471.628 131.537 472.393 131.442 473.136 131.581C473.879 131.72 474.566 132.087 475.108 132.635C475.65 133.183 476.024 133.887 476.181 134.657C476.338 135.428 476.272 136.23 475.991 136.961C475.709 137.692 475.226 138.319 474.602 138.762C473.978 139.205 473.241 139.444 472.487 139.448C471.989 139.474 471.491 139.393 471.025 139.21C470.558 139.027 470.132 138.746 469.774 138.384C469.416 138.022 469.133 137.587 468.943 137.106C468.752 136.626 468.659 136.109 468.668 135.589ZM474.922 135.589C474.943 135.238 474.896 134.886 474.782 134.555C474.668 134.224 474.49 133.921 474.26 133.664C474.029 133.407 473.75 133.203 473.441 133.063C473.132 132.923 472.799 132.851 472.461 132.851C472.124 132.851 471.791 132.923 471.482 133.063C471.172 133.203 470.894 133.407 470.663 133.664C470.433 133.921 470.255 134.224 470.141 134.555C470.027 134.886 469.98 135.238 470.001 135.589C469.98 135.94 470.027 136.292 470.141 136.623C470.255 136.954 470.433 137.257 470.663 137.514C470.894 137.77 471.172 137.975 471.482 138.114C471.791 138.254 472.124 138.326 472.461 138.326C472.799 138.326 473.132 138.254 473.441 138.114C473.75 137.975 474.029 137.77 474.26 137.514C474.49 137.257 474.668 136.954 474.782 136.623C474.896 136.292 474.943 135.94 474.922 135.589Z" fill="#FF8F15"/>
<path d="M485.621 135.589C485.648 136.104 485.572 136.62 485.397 137.102C485.222 137.585 484.952 138.024 484.605 138.392C484.258 138.759 483.84 139.046 483.38 139.236C482.92 139.425 482.427 139.512 481.933 139.49C481.445 139.506 480.96 139.401 480.518 139.185C480.076 138.969 479.688 138.647 479.387 138.246V142.19H478.064V131.782H479.327V132.995C479.629 132.577 480.025 132.241 480.479 132.017C480.933 131.793 481.432 131.687 481.933 131.708C482.426 131.687 482.917 131.773 483.375 131.961C483.834 132.149 484.25 132.435 484.597 132.8C484.944 133.165 485.214 133.602 485.391 134.082C485.567 134.562 485.645 135.075 485.621 135.589ZM484.287 135.589C484.264 135.088 484.1 134.606 483.817 134.202C483.533 133.798 483.143 133.489 482.693 133.314C482.244 133.139 481.755 133.106 481.287 133.218C480.819 133.329 480.393 133.582 480.061 133.944C479.73 134.306 479.507 134.761 479.42 135.254C479.334 135.746 479.388 136.254 479.575 136.716C479.762 137.177 480.075 137.57 480.474 137.848C480.874 138.126 481.342 138.275 481.822 138.278C482.159 138.289 482.495 138.226 482.807 138.094C483.12 137.961 483.402 137.762 483.636 137.508C483.87 137.255 484.051 136.953 484.167 136.623C484.282 136.292 484.33 135.94 484.308 135.589H484.287Z" fill="#FF8F15"/>
<path d="M486.551 138.595L487.097 137.54C487.864 138.05 488.754 138.32 489.663 138.32C490.885 138.32 491.391 137.941 491.391 137.266C491.391 135.558 486.783 137.044 486.783 134.008C486.783 132.647 487.955 131.719 489.814 131.719C490.743 131.705 491.66 131.945 492.472 132.415L491.906 133.47C491.277 133.06 490.546 132.851 489.804 132.869C488.642 132.869 488.077 133.312 488.077 133.923C488.077 135.716 492.704 134.25 492.704 137.213C492.704 138.584 491.492 139.47 489.552 139.47C488.49 139.503 487.443 139.198 486.551 138.595Z" fill="#FF8F15"/>
<path d="M494.068 138.562C494.068 138.439 494.091 138.317 494.138 138.203C494.184 138.09 494.251 137.987 494.336 137.902C494.421 137.816 494.521 137.749 494.631 137.705C494.742 137.661 494.859 137.64 494.977 137.644C495.093 137.642 495.209 137.663 495.317 137.708C495.425 137.753 495.523 137.821 495.605 137.907C495.687 137.992 495.752 138.095 495.795 138.207C495.838 138.32 495.859 138.441 495.856 138.562C495.858 138.683 495.836 138.804 495.792 138.916C495.749 139.029 495.684 139.131 495.602 139.217C495.521 139.304 495.423 139.372 495.316 139.419C495.209 139.466 495.093 139.49 494.977 139.49C494.859 139.493 494.741 139.471 494.631 139.425C494.521 139.38 494.42 139.312 494.335 139.226C494.251 139.139 494.183 139.036 494.137 138.922C494.091 138.808 494.068 138.685 494.068 138.562ZM494.189 129.346H495.725L495.462 136.221H494.452L494.189 129.346Z" fill="#FF8F15"/>
<path d="M615.285 316.498C615.285 316.498 615.112 316.498 614.779 316.498C614.292 316.468 613.805 316.468 613.318 316.498C611.436 316.613 609.587 317.065 607.852 317.835C605.103 319.038 602.71 320.984 600.92 323.473C599.816 325.027 598.995 326.779 598.498 328.642C597.376 333.08 597.982 337.802 600.183 341.776C600.783 342.876 601.515 343.892 602.361 344.798C603.215 345.759 604.21 346.572 605.309 347.206C606.436 347.868 607.713 348.203 609.006 348.176C610.339 348.159 611.618 347.619 612.588 346.664C613.056 346.152 613.424 345.548 613.669 344.887C613.914 344.226 614.032 343.521 614.016 342.812C614.007 341.34 613.559 339.908 612.735 338.713C611.075 336.272 608.384 334.634 605.52 333.751C602.55 332.88 599.414 332.834 596.422 333.617C594.894 334.032 593.422 334.643 592.039 335.436C590.642 336.259 589.374 337.298 588.278 338.519C588.015 338.833 587.714 339.121 587.477 339.469L586.753 340.485C586.312 341.201 585.919 341.948 585.574 342.719C584.888 344.284 584.42 345.944 584.183 347.647C583.718 351.05 584.162 354.521 585.465 357.678C586.71 360.763 588.88 363.344 591.648 365.034C592.99 365.835 594.488 366.308 596.031 366.419C597.543 366.507 599.047 366.13 600.356 365.335C601.655 364.586 602.682 363.411 603.277 361.992C603.839 360.593 603.878 359.025 603.386 357.598C602.88 356.221 602.052 354.998 600.977 354.04C599.935 353.1 598.733 352.372 597.434 351.894C594.9 351.06 592.189 351.011 589.63 351.753C587.235 352.431 585.035 353.709 583.222 355.478C581.571 357.129 580.314 359.16 579.551 361.41C578.216 365.313 578.277 369.588 579.724 373.447C580.852 376.328 582.667 378.86 584.997 380.803C586.465 382.032 588.099 383.026 589.847 383.752C590.45 383.986 590.917 384.16 591.238 384.254L591.712 384.414C591.712 384.414 591.545 384.381 591.225 384.287C590.752 384.155 590.285 383.996 589.828 383.812C588.057 383.118 586.401 382.138 584.92 380.91C582.551 378.969 580.699 376.424 579.544 373.521C578.072 369.625 577.997 365.305 579.333 361.356C580.097 359.073 581.369 357.01 583.043 355.338C584.881 353.534 587.113 352.225 589.546 351.526C592.16 350.765 594.929 350.811 597.517 351.66C598.855 352.146 600.092 352.893 601.163 353.86C602.28 354.849 603.139 356.116 603.662 357.545C604.189 359.035 604.166 360.678 603.598 362.152C602.966 363.627 601.894 364.849 600.542 365.636C599.184 366.462 597.625 366.857 596.056 366.773C594.476 366.658 592.942 366.169 591.571 365.342C588.739 363.628 586.516 361.002 585.234 357.859C583.903 354.644 583.446 351.109 583.914 347.641C584.159 345.903 584.638 344.21 585.337 342.612C585.689 341.824 586.091 341.062 586.541 340.331L587.284 339.295C587.522 338.94 587.829 338.626 588.098 338.318C589.22 337.074 590.517 336.015 591.943 335.175C593.358 334.367 594.865 333.747 596.428 333.33C599.477 332.532 602.674 332.581 605.7 333.47C608.621 334.38 611.357 336.045 613.081 338.573C613.947 339.817 614.418 341.314 614.426 342.852C614.458 344.366 613.911 345.831 612.908 346.925C611.883 347.929 610.533 348.495 609.128 348.51C607.782 348.542 606.454 348.193 605.283 347.5C604.158 346.852 603.141 346.019 602.272 345.033C601.414 344.106 600.671 343.07 600.061 341.95C597.821 337.902 597.212 333.091 598.369 328.575C598.882 326.69 599.723 324.92 600.849 323.352C602.672 320.845 605.106 318.893 607.897 317.701C609.646 316.946 611.51 316.521 613.401 316.444C613.892 316.41 614.384 316.41 614.875 316.444L615.285 316.498Z" fill="#263238"/>
<path d="M633.237 388.331H543.398V460.648H633.237V388.331Z" fill="#FF8F15"/>
<path d="M543.398 388.331L559.993 404.488H648.307L633.237 388.331H543.398Z" fill="#FF8F15"/>
<path d="M570.386 421.682C569.899 421.7 569.439 421.917 569.104 422.286C568.769 422.655 568.587 423.147 568.596 423.655C568.604 424.163 568.804 424.647 569.151 425.003C569.499 425.359 569.966 425.559 570.453 425.559C570.94 425.559 571.408 425.359 571.755 425.003C572.103 424.647 572.302 424.163 572.311 423.655C572.32 423.147 572.137 422.655 571.803 422.286C571.468 421.917 571.007 421.7 570.521 421.682" fill="#263238"/>
<path d="M591.614 421.682C591.129 421.701 590.671 421.918 590.338 422.286C590.005 422.654 589.824 423.144 589.833 423.65C589.842 424.156 590.041 424.638 590.387 424.992C590.734 425.347 591.199 425.545 591.684 425.545C592.169 425.545 592.635 425.347 592.981 424.992C593.327 424.638 593.526 424.156 593.536 423.65C593.545 423.144 593.364 422.654 593.031 422.286C592.698 421.918 592.239 421.701 591.755 421.682" fill="#263238"/>
<path d="M591.735 438.988C591.365 437.511 590.763 436.107 589.954 434.835C589.054 433.474 587.899 432.319 586.558 431.438C584.941 430.318 583.054 429.694 581.113 429.639C579.173 429.583 577.256 430.098 575.582 431.124C574.2 431.929 572.986 433.016 572.013 434.32C571.137 435.546 570.464 436.915 570.021 438.373C570.025 438.264 570.043 438.156 570.072 438.052C570.133 437.75 570.212 437.453 570.309 437.162C570.66 436.088 571.173 435.079 571.827 434.173C572.793 432.808 574.022 431.669 575.435 430.829C577.152 429.76 579.125 429.222 581.124 429.278C583.124 429.335 585.066 429.985 586.725 431.15C588.089 432.065 589.254 433.268 590.146 434.681C590.755 435.624 591.216 436.663 591.511 437.757C591.59 438.054 591.652 438.356 591.697 438.66C591.719 438.768 591.732 438.878 591.735 438.988Z" fill="#263238"/>
<path opacity="0.5" d="M543.603 389.128L559.493 410.153H633.237V404.489H559.993L543.603 389.128Z" fill="black"/>
<path d="M615.52 460.488C615.43 460.488 615.354 447.909 615.354 432.401C615.354 416.893 615.43 404.314 615.52 404.314C615.61 404.314 615.693 416.887 615.693 432.401C615.693 447.916 615.616 460.488 615.52 460.488Z" fill="#263238"/>
<path d="M629.629 444.091H621.71V453.433H629.629V444.091Z" fill="#F5F5F5"/>
<g opacity="0.4">
<path opacity="0.4" d="M543.397 388.332L524.957 404.489H543.397V388.332Z" fill="black"/>
</g>
<path d="M380.903 191.488L362.812 186.843H362.946C358.275 189.944 352.873 191.637 347.337 191.735C344.06 191.751 340.799 191.255 337.663 190.262C332.149 188.415 327.258 184.958 323.566 180.301C319.874 175.644 317.537 169.982 316.831 163.983C316.276 159.446 316.685 154.837 318.027 150.483C319.37 146.13 321.613 142.137 324.599 138.79C326.169 136.99 327.928 135.381 329.843 133.994C330.812 133.359 331.78 132.704 332.79 132.155L334.325 131.381L335.087 130.994L335.891 130.693C340.028 129.019 344.466 128.311 348.893 128.618C354.826 129.02 360.513 131.246 365.236 135.015C369.959 138.785 373.507 143.929 375.433 149.8C376.503 153.084 377.066 156.525 377.102 159.994C377.128 165.758 375.627 171.418 372.764 176.348V176.176C377.792 185.65 380.327 190.434 380.893 191.488C380.306 190.413 377.679 185.714 372.476 176.338V176.252V176.166C375.235 171.283 376.661 165.705 376.597 160.037C376.549 156.624 375.979 153.24 374.907 150.015C373.002 144.265 369.514 139.228 364.879 135.537C360.245 131.845 354.669 129.663 348.852 129.263C344.512 128.967 340.162 129.665 336.107 131.306L335.324 131.596L334.572 131.983L333.068 132.736C332.038 133.284 331.131 133.919 330.173 134.542C328.295 135.893 326.567 137.458 325.022 139.209C322.09 142.495 319.887 146.414 318.568 150.688C317.249 154.962 316.846 159.486 317.387 163.94C318.343 172.1 322.354 179.534 328.545 184.617C331.313 186.906 334.454 188.655 337.818 189.779C340.898 190.772 344.103 191.276 347.327 191.273C352.796 191.212 358.143 189.579 362.781 186.553H362.843H362.956L380.903 191.488Z" fill="#FF8F15"/>
<path d="M344.411 146.145L345.328 161.951C345.365 162.575 345.619 163.163 346.042 163.604C346.465 164.046 347.028 164.311 347.626 164.349C348.254 164.386 348.873 164.171 349.353 163.747C349.834 163.323 350.142 162.723 350.212 162.07L351.891 146.231C351.92 145.948 351.891 145.661 351.806 145.39C351.722 145.119 351.582 144.87 351.398 144.66C351.214 144.449 350.989 144.282 350.738 144.169C350.488 144.056 350.217 144 349.944 144.005H346.266C346.008 144.013 345.754 144.076 345.519 144.189C345.285 144.302 345.075 144.463 344.902 144.663C344.728 144.862 344.596 145.097 344.511 145.352C344.427 145.606 344.393 145.876 344.411 146.145Z" fill="#FF8F15"/>
<path d="M351.623 173.176C351.393 173.898 350.962 174.532 350.386 174.999C349.81 175.466 349.115 175.744 348.387 175.798C347.66 175.853 346.933 175.681 346.3 175.304C345.666 174.928 345.153 174.364 344.826 173.683C344.5 173.003 344.374 172.237 344.464 171.481C344.554 170.726 344.857 170.016 345.334 169.44C345.812 168.865 346.441 168.45 347.144 168.248C347.847 168.045 348.592 168.065 349.284 168.305C349.745 168.464 350.17 168.716 350.537 169.048C350.904 169.379 351.204 169.782 351.421 170.234C351.639 170.687 351.768 171.179 351.803 171.684C351.837 172.189 351.776 172.696 351.623 173.176Z" fill="#FF8F15"/>
</svg>
