<svg width="48" height="37" viewBox="0 0 48 37" fill="none" xmlns="http://www.w3.org/2000/svg">
<g clip-path="url(#clip0_2228_2617)">
<path d="M36.9856 0.284887C36.9903 3.18919 36.125 6.02602 34.5049 8.41753C33.7219 9.57216 32.7785 10.6052 31.704 11.4845C30.6332 12.3626 29.4405 13.0747 28.1647 13.5977C26.8413 14.1403 25.4447 14.4757 24.0224 14.5925C22.559 14.7122 21.0863 14.6013 19.6562 14.2637C18.2787 13.9369 16.9577 13.4003 15.7377 12.6721C14.5378 11.9543 13.4481 11.061 12.5036 10.0208C11.5562 8.97774 10.7654 7.79826 10.1565 6.52042C9.53688 5.21279 9.11603 3.81707 8.90829 2.38095C8.85714 2.03079 8.82163 1.67818 8.79695 1.32496C8.79511 1.24735 8.76394 1.17344 8.70992 1.11861C8.6559 1.06377 8.58318 1.03222 8.50688 1.03051C8.35883 1.03051 8.20597 1.16518 8.2174 1.32496C8.32032 2.84613 8.65175 4.34228 9.20017 5.76134C9.74143 7.15016 10.4819 8.44981 11.3974 9.61799C12.2968 10.7624 13.3563 11.7667 14.5419 12.5986C15.7455 13.444 17.067 14.1011 18.4622 14.5478C19.9024 15.0068 21.4034 15.2378 22.9126 15.2328C24.415 15.2294 25.908 14.9919 27.3396 14.5288C28.7213 14.0801 30.0298 13.4248 31.222 12.5846C32.4018 11.7542 33.4561 10.7529 34.3514 9.61248C35.2563 8.45789 35.9903 7.17488 36.53 5.80419C37.0794 4.39987 37.4148 2.91852 37.5248 1.41127C37.5525 1.03663 37.5664 0.661166 37.5664 0.284887C37.5664 -0.0946563 36.9874 -0.0952685 36.9868 0.284887H36.9856Z" fill="white"/>
<path d="M23.1648 19.1642V15.2011C23.1666 15.1612 23.1604 15.1214 23.1467 15.0841C23.1329 15.0468 23.1119 15.0126 23.0848 14.9838C23.0577 14.955 23.0251 14.932 22.9891 14.9163C22.953 14.9007 22.9142 14.8926 22.875 14.8926C22.8358 14.8926 22.797 14.9007 22.761 14.9163C22.7249 14.932 22.6924 14.955 22.6653 14.9838C22.6382 15.0126 22.6172 15.0468 22.6034 15.0841C22.5896 15.1214 22.5835 15.1612 22.5853 15.2011V19.1642C22.5887 19.2401 22.6207 19.3117 22.6746 19.3642C22.7286 19.4166 22.8004 19.4459 22.875 19.4459C22.9497 19.4459 23.0215 19.4166 23.0754 19.3642C23.1294 19.3117 23.1614 19.2401 23.1648 19.1642V19.1642Z" fill="white"/>
<path d="M8.58841 1.60531L8.68531 1.5845C8.77799 1.56552 8.87067 1.54838 8.96395 1.53247C9.03075 1.52084 9.09755 1.51043 9.16496 1.50002L9.2799 1.48288L9.34009 1.47431C9.39485 1.46635 9.28291 1.48166 9.29615 1.47982L9.32986 1.47553C9.52424 1.44982 9.71863 1.42779 9.91422 1.41003C10.1497 1.38881 10.3852 1.3731 10.6208 1.3629C10.8912 1.35106 11.1614 1.34678 11.4314 1.35004C11.7323 1.35371 12.029 1.36596 12.3263 1.388C12.4844 1.39983 12.6421 1.41411 12.7993 1.43085C12.8818 1.44003 12.9642 1.44982 13.0461 1.46023L13.1665 1.47553L13.1267 1.47003L13.1586 1.47492L13.2188 1.48349C13.5576 1.53308 13.8953 1.59613 14.2293 1.67388C14.5771 1.75407 14.922 1.85018 15.2614 1.96282C15.4359 2.02118 15.609 2.08362 15.7808 2.15014C15.8678 2.18361 15.9545 2.21871 16.0408 2.25544L16.1009 2.27992L16.0612 2.26278L16.0763 2.26952L16.11 2.28421C16.1545 2.30319 16.1984 2.32339 16.2424 2.34542C16.5932 2.50519 16.9348 2.68526 17.2655 2.88474C17.4356 2.98759 17.6029 3.09574 17.7674 3.20919C17.8504 3.26674 17.9329 3.32571 18.0147 3.38611L18.1351 3.47671L18.1953 3.52262L18.223 3.54405L18.1917 3.51956L18.2097 3.53425C18.5416 3.79858 18.8561 4.08488 19.151 4.39129C19.305 4.55127 19.4535 4.71614 19.5963 4.88592C19.6691 4.97285 19.7407 5.06161 19.8112 5.15099L19.8629 5.21771L19.887 5.24893C19.9225 5.29485 19.8515 5.20119 19.8774 5.23608C19.9129 5.28383 19.9484 5.33096 19.9833 5.37933C20.2701 5.77162 20.5307 6.18311 20.7632 6.61101C20.8872 6.83996 21.0036 7.07279 21.1123 7.30949C21.1689 7.43192 21.223 7.55436 21.276 7.67679L21.294 7.71964C21.2989 7.7325 21.3229 7.79004 21.3031 7.74168C21.2832 7.69332 21.3031 7.74596 21.3091 7.75698L21.3326 7.81514C21.3584 7.87636 21.3837 7.94186 21.4078 8.00552C21.6197 8.55576 21.7994 9.11832 21.9458 9.69021C22.109 10.3267 22.2388 10.9716 22.3346 11.6222C22.3478 11.7104 22.3605 11.7985 22.3725 11.8867C22.3725 11.9069 22.3779 11.9265 22.3803 11.9479C22.3881 12.0048 22.3731 11.8922 22.3803 11.9479L22.3984 12.0881C22.4208 12.268 22.4409 12.4484 22.4586 12.6292C22.4963 13.0063 22.5254 13.384 22.5458 13.7623C22.5675 14.1517 22.5807 14.541 22.5855 14.9304C22.5838 14.9702 22.5899 15.01 22.6037 15.0473C22.6174 15.0847 22.6385 15.1188 22.6656 15.1476C22.6927 15.1765 22.7252 15.1994 22.7613 15.2151C22.7973 15.2308 22.8361 15.2389 22.8753 15.2389C22.9145 15.2389 22.9533 15.2308 22.9894 15.2151C23.0254 15.1994 23.058 15.1765 23.0851 15.1476C23.1121 15.1188 23.1332 15.0847 23.147 15.0473C23.1607 15.01 23.1669 14.9702 23.1651 14.9304C23.1537 14.1449 23.1127 13.3589 23.0333 12.5772C22.9605 11.864 22.8576 11.1527 22.7149 10.4499C22.592 9.83741 22.4353 9.23245 22.2455 8.63789C22.0665 8.08037 21.854 7.53452 21.6094 7.00341C21.3954 6.53864 21.1516 6.08874 20.8794 5.65664C20.6156 5.23896 20.324 4.84012 20.0067 4.46291C19.7243 4.126 19.4194 3.80918 19.0944 3.51466C18.771 3.22169 18.4292 2.95034 18.0713 2.70232C17.743 2.47522 17.4013 2.26874 17.0482 2.08403C16.691 1.8979 16.3241 1.73156 15.9493 1.58573C15.6062 1.45105 15.256 1.33474 14.9015 1.23557C14.5633 1.14129 14.2223 1.06191 13.8784 0.997432C13.5263 0.931318 13.1713 0.879896 12.8156 0.84133C12.5051 0.807048 12.1927 0.783786 11.8804 0.77093C11.5939 0.758687 11.3074 0.755014 11.021 0.759911C10.7646 0.764401 10.5084 0.775216 10.2524 0.792356C10.035 0.807048 9.81833 0.827454 9.60248 0.853573C9.40508 0.875611 9.20769 0.901934 9.01149 0.93193C8.89113 0.950908 8.77076 0.971109 8.6504 0.993147C8.58661 1.00539 8.52282 1.01641 8.46023 1.03171L8.43675 1.03722C8.36302 1.05852 8.30048 1.10847 8.26265 1.17628C8.22481 1.24409 8.21472 1.32431 8.23454 1.39963C8.25615 1.47419 8.30538 1.5373 8.37184 1.57567C8.4383 1.61404 8.51681 1.62467 8.59082 1.60531H8.58841Z" fill="white"/>
<path d="M10.3379 3.02637C10.908 3.27899 11.4648 3.56158 12.0061 3.87299C12.5478 4.18459 13.081 4.5121 13.5998 4.86226C14.1185 5.21242 14.6265 5.58033 15.1218 5.96416C15.6171 6.34799 16.0949 6.75998 16.5607 7.18176C17.495 8.02773 18.3504 8.95974 19.116 9.96589C19.496 10.4707 19.8467 10.9977 20.1662 11.5441C20.4813 12.0908 20.7567 12.6602 20.9901 13.2477C20.6639 12.7096 20.3329 12.1807 19.967 11.6757C19.8779 11.5483 19.7829 11.4247 19.6914 11.2992L19.553 11.1119L19.4079 10.9282C19.3104 10.8058 19.2171 10.6834 19.1191 10.564L18.8212 10.2071C18.0163 9.26505 17.1536 8.37583 16.2381 7.54477C15.7816 7.12728 15.3147 6.7212 14.8377 6.32656C14.3607 5.93192 13.8752 5.54748 13.3813 5.17324C12.8878 4.79859 12.3895 4.42884 11.881 4.07134C11.3724 3.71383 10.8603 3.36673 10.3379 3.02637Z" fill="white"/>
<path d="M24.6543 12.4885C24.7975 12.4273 24.9408 12.3661 25.081 12.2963C25.152 12.2645 25.2224 12.2351 25.2928 12.199C25.3632 12.1628 25.4331 12.1328 25.5023 12.0979L25.9175 11.8947C26.0541 11.8231 26.1919 11.7557 26.3262 11.6798C26.8678 11.3921 27.3974 11.0903 27.9089 10.7659C28.0383 10.6881 28.1623 10.6 28.2893 10.5179C28.4163 10.4359 28.5391 10.349 28.6636 10.2639C28.7882 10.1788 28.908 10.0882 29.0307 10.0013L29.2113 9.86844L29.3882 9.72947C29.5086 9.63642 29.6289 9.54889 29.7415 9.45094L29.9148 9.30769C29.975 9.26055 30.0304 9.21342 30.0851 9.162L30.4227 8.86693L30.7477 8.56085L30.8296 8.48433L30.9078 8.40474L31.0649 8.24497L31.2214 8.08519L31.3712 7.91807L31.5223 7.75279C31.5728 7.69769 31.624 7.64382 31.6703 7.58505C31.7654 7.46935 31.8599 7.35365 31.9574 7.2404C32.3317 6.77124 32.6775 6.27938 32.9931 5.76753L33.0533 5.67142L33.1099 5.57347L33.2224 5.37574L33.3404 5.17189L33.3969 5.07272L33.4487 4.9711C33.5185 4.83581 33.5859 4.6993 33.6581 4.5634C33.6756 4.52911 33.6942 4.49545 33.7105 4.46116L33.758 4.35648C33.7899 4.2867 33.8182 4.21569 33.8537 4.14651L33.953 3.93654L34.0024 3.83124L34.0457 3.72411C34.1059 3.58026 34.1595 3.43578 34.2226 3.29192C34.2858 3.14807 34.3364 3.00053 34.3912 2.853C34.4459 2.70547 34.5019 2.55732 34.5633 2.40918L34.6235 2.4202C34.4093 3.66801 34.0031 4.87369 33.4198 5.99281L33.1923 6.40724C33.1562 6.47764 33.1117 6.54253 33.072 6.60987L32.9468 6.81005L32.8216 7.01023L32.6868 7.20367C32.5947 7.331 32.5063 7.46262 32.4124 7.5875C32.0318 8.08743 31.6154 8.55805 31.1666 8.99549L30.823 9.31687L30.4661 9.62296C30.4059 9.67499 30.3457 9.72274 30.2855 9.7711L30.0972 9.91741C29.9768 10.0166 29.848 10.1066 29.7216 10.1984C29.2145 10.564 28.6853 10.8966 28.137 11.1944C27.043 11.7966 25.8762 12.2506 24.6663 12.5448L24.6543 12.4885Z" fill="#F89B48"/>
<path d="M26.1582 9.79505C26.763 9.38612 27.3215 8.98454 27.8433 8.55296C28.3517 8.13327 28.822 7.66799 29.2486 7.16273L29.4014 6.97234C29.455 6.91113 29.4977 6.84134 29.5483 6.77706L29.6223 6.67973C29.6464 6.64667 29.668 6.61239 29.6915 6.57872L29.8293 6.37671C30.0099 6.10307 30.1699 5.81535 30.327 5.51967C30.6279 4.92158 30.8753 4.27697 31.1316 3.5791L31.1918 3.58277L31.172 3.85152C31.1635 3.94089 31.1617 4.03149 31.1473 4.12026C31.1214 4.2984 31.1046 4.47776 31.0654 4.65346C31.0474 4.74222 31.0299 4.83037 31.0107 4.91852L30.9409 5.17931L30.9054 5.3097L30.8626 5.43764L30.7754 5.69353C30.6481 6.03149 30.4954 6.35895 30.3186 6.67299C30.1377 6.98417 29.9333 7.28053 29.7071 7.55941C29.2428 8.1064 28.7018 8.58082 28.1015 8.9674C27.5062 9.35871 26.8572 9.65805 26.1757 9.85565L26.1582 9.79505Z" fill="#F89B48"/>
<path d="M25.1953 8.26405C25.631 7.90532 26.03 7.58271 26.399 7.24724C26.7591 6.92457 27.0967 6.57684 27.4094 6.20655C27.484 6.11473 27.5593 6.0229 27.6285 5.92741C27.6977 5.83191 27.7663 5.73518 27.8379 5.63907C27.9733 5.44257 28.0961 5.23688 28.2213 5.02691C28.462 4.59839 28.6726 4.12947 28.9176 3.61035L28.9778 3.61402C28.9669 3.7487 28.9621 3.88399 28.9459 4.01806C28.9296 4.15212 28.9152 4.2868 28.8857 4.41902C28.8724 4.48514 28.8592 4.55187 28.8448 4.61798L28.7924 4.81448L28.7665 4.91243L28.7346 5.00854L28.6702 5.20137C28.5749 5.45496 28.4602 5.70058 28.3272 5.93598C28.1914 6.17004 28.0381 6.39312 27.8686 6.60324C27.519 7.01299 27.112 7.36818 26.6607 7.65739C26.436 7.80229 26.202 7.93175 25.9602 8.04489C25.7178 8.15725 25.4668 8.24938 25.2098 8.32037L25.1953 8.26405Z" fill="#F89B48"/>
<path d="M3.85142 30.3635C3.67208 30.3635 3.54329 30.2725 3.46505 30.0905L0.275405 22.4996C0.196566 22.2963 0.19115 22.1323 0.259156 22.0141C0.327161 21.896 0.446924 21.8335 0.620248 21.8335C0.793572 21.8335 0.92838 21.9248 1.00662 22.1066L3.97179 29.3124H3.73527L6.68419 22.1286C6.71446 22.0376 6.77058 21.9577 6.84548 21.899C6.92314 21.8519 7.01273 21.8291 7.10306 21.8335C7.26736 21.8335 7.37809 21.8948 7.43586 22.0245C7.46411 22.0932 7.47775 22.1671 7.47588 22.2415C7.47401 22.3159 7.45668 22.389 7.42503 22.4561L4.22876 30.088C4.19826 30.1746 4.14212 30.2495 4.06808 30.3023C4.00293 30.3429 3.92786 30.3642 3.85142 30.3635Z" fill="white"/>
<path d="M10.1324 30.4158C9.59449 30.4264 9.06332 30.2928 8.59233 30.0283C8.15108 29.7764 7.78698 29.4052 7.54035 28.9558C7.28108 28.4734 7.15057 27.9303 7.1618 27.3807C7.1618 26.784 7.28217 26.258 7.52289 25.8025C7.75183 25.3593 8.09486 24.9878 8.5153 24.7275C8.95632 24.4604 9.4621 24.3242 9.97532 24.3345C10.519 24.3345 10.993 24.46 11.3974 24.711C11.8008 24.9608 12.1265 25.3216 12.3369 25.7517C12.5647 26.2235 12.6788 26.7437 12.6697 27.2693C12.6719 27.3208 12.6635 27.3722 12.645 27.4202C12.6264 27.4682 12.5981 27.5117 12.5619 27.5478C12.486 27.6185 12.3856 27.6557 12.2827 27.6512H7.72089V26.9546H12.3688L11.9072 27.2931C11.9205 26.9019 11.8434 26.513 11.6821 26.1576C11.5359 25.8363 11.3033 25.5638 11.011 25.3715C10.7003 25.1764 10.3404 25.0777 9.97532 25.0875C9.59704 25.0793 9.22441 25.1817 8.90167 25.3826C8.59235 25.5796 8.34392 25.8614 8.1849 26.1955C8.01165 26.5653 7.92532 26.9711 7.93273 27.3807C7.92494 27.7922 8.02307 28.1987 8.2174 28.5597C8.40063 28.8953 8.66945 29.1745 8.99555 29.3678C9.34158 29.5686 9.73466 29.6704 10.133 29.6622C10.398 29.661 10.661 29.6149 10.9111 29.5257C11.1402 29.4528 11.3535 29.336 11.5394 29.1817C11.6149 29.1175 11.7095 29.081 11.8079 29.0782C11.9007 29.0724 11.9924 29.1016 12.0654 29.1602C12.1071 29.1951 12.1415 29.2382 12.1664 29.2869C12.1913 29.3356 12.2063 29.3889 12.2105 29.4437C12.212 29.4943 12.2015 29.5445 12.18 29.5901C12.1584 29.6357 12.1263 29.6753 12.0865 29.7057C11.8177 29.9284 11.512 30.1004 11.1838 30.2138C10.8476 30.343 10.4918 30.4114 10.1324 30.4158V30.4158Z" fill="white"/>
<path d="M14.4694 30.3637C14.4145 30.3693 14.359 30.3623 14.3071 30.3434C14.2551 30.3245 14.2079 30.2941 14.1689 30.2544C14.1298 30.2147 14.0999 30.1667 14.0814 30.1138C14.0628 30.061 14.0559 30.0046 14.0614 29.9487V24.8065C14.0584 24.7501 14.0667 24.6937 14.0858 24.6406C14.105 24.5876 14.1345 24.5391 14.1727 24.4981C14.2109 24.4571 14.2569 24.4244 14.3079 24.4021C14.3589 24.3798 14.4139 24.3683 14.4694 24.3683C14.5249 24.3683 14.5799 24.3798 14.6309 24.4021C14.6819 24.4244 14.7279 24.4571 14.7661 24.4981C14.8043 24.5391 14.8339 24.5876 14.853 24.6406C14.8721 24.6937 14.8805 24.7501 14.8774 24.8065V29.9487C14.8828 30.0045 14.8759 30.0609 14.8572 30.1137C14.8386 30.1665 14.8087 30.2145 14.7697 30.2542C14.7307 30.2939 14.6836 30.3243 14.6316 30.3432C14.5797 30.3621 14.5243 30.3692 14.4694 30.3637V30.3637ZM14.405 26.684C14.4195 26.2567 14.5393 25.8399 14.7535 25.4719C14.955 25.1253 15.2395 24.8362 15.5804 24.6314C15.9233 24.4266 16.3147 24.3207 16.7124 24.3253C17.0418 24.3253 17.296 24.3727 17.4749 24.4674C17.6538 24.562 17.7219 24.7002 17.6789 24.8818C17.6712 24.9266 17.6543 24.9691 17.6293 25.0068C17.6043 25.0445 17.5718 25.0763 17.5339 25.1003C17.4574 25.1384 17.3718 25.1535 17.2871 25.1438L16.9597 25.1224C16.5991 25.0799 16.2338 25.1218 15.8915 25.2448C15.5975 25.3519 15.3402 25.5432 15.1507 25.7958C14.9657 26.0514 14.8696 26.3624 14.8774 26.6797L14.405 26.684Z" fill="white"/>
<path d="M21.2202 30.4153C20.6835 30.4245 20.1539 30.2889 19.6855 30.0223C19.2412 29.7669 18.8738 29.3931 18.6227 28.9412C18.369 28.4592 18.2363 27.921 18.2363 27.3743C18.2363 26.8277 18.369 26.2895 18.6227 25.8075C18.8738 25.3558 19.2413 24.9822 19.6855 24.727C20.1564 24.469 20.6829 24.334 21.2178 24.334C21.7526 24.334 22.2791 24.469 22.75 24.727C23.1917 24.9835 23.5569 25.3569 23.8068 25.8075C24.0701 26.2882 24.2069 26.8299 24.204 27.3802C24.213 27.9268 24.0777 28.4659 23.8122 28.9412C23.559 29.3916 23.1918 29.7649 22.7488 30.0223C22.2826 30.2891 21.755 30.4248 21.2202 30.4153V30.4153ZM21.2202 29.6507C21.6116 29.6569 21.9974 29.5552 22.3365 29.3562C22.6621 29.1638 22.9296 28.8844 23.1099 28.5482C23.2999 28.1896 23.3961 27.7874 23.3891 27.3802C23.3957 26.971 23.2996 26.5669 23.1099 26.206C22.9308 25.8679 22.6634 25.5865 22.3371 25.3931C21.9958 25.1996 21.6115 25.098 21.2208 25.098C20.83 25.098 20.4457 25.1996 20.1044 25.3931C19.7774 25.5874 19.5084 25.8684 19.3262 26.206C19.1333 26.5658 19.0354 26.9704 19.0422 27.3802C19.035 27.788 19.133 28.1907 19.3262 28.5482C19.5095 28.8838 19.7783 29.163 20.1044 29.3562C20.4433 29.5551 20.8289 29.6568 21.2202 29.6507V29.6507Z" fill="white"/>
<path d="M28.4768 30.4049C27.948 30.4128 27.4269 30.2751 26.9687 30.0064C26.5263 29.746 26.1596 29.3711 25.9058 28.9198C25.6412 28.4481 25.5059 27.9128 25.5141 27.3698C25.5058 26.8322 25.6299 26.301 25.8752 25.8247C26.1036 25.3829 26.4423 25.0101 26.8573 24.7436C27.2789 24.4764 27.7671 24.3381 28.2638 24.3451C28.6597 24.3424 29.0512 24.4303 29.4093 24.6022C29.7673 24.7742 30.0827 25.0259 30.3322 25.3386V22.3911C30.3291 22.3164 30.3413 22.242 30.368 22.1724C30.3948 22.1028 30.4355 22.0397 30.4875 21.987C30.5395 21.9363 30.601 21.8966 30.6682 21.8703C30.7355 21.8441 30.8073 21.8317 30.8793 21.834C30.9524 21.8294 31.0256 21.8407 31.0941 21.8671C31.1625 21.8935 31.2247 21.9344 31.2765 21.987C31.3283 22.0397 31.3685 22.1029 31.3944 22.1726C31.4203 22.2423 31.4314 22.3167 31.427 22.3911V27.3698C31.4351 27.9128 31.2998 28.4481 31.0352 28.9198C30.7788 29.3782 30.4059 29.758 29.9556 30.0193C29.5052 30.2806 28.994 30.4138 28.4756 30.4049H28.4768ZM28.4768 29.4224C28.8204 29.4282 29.1587 29.3355 29.453 29.1549C29.7395 28.9766 29.9733 28.7228 30.1294 28.4203C30.2962 28.0973 30.3811 27.7371 30.3762 27.3723C30.3828 27.0073 30.2979 26.6466 30.1294 26.3242C29.9714 26.0254 29.7379 25.7748 29.453 25.5982C29.1573 25.423 28.8212 25.3307 28.4789 25.3307C28.1367 25.3307 27.8006 25.423 27.5049 25.5982C27.2171 25.7742 26.9802 26.0244 26.8182 26.3236C26.6461 26.6448 26.5592 27.006 26.566 27.3717C26.5608 27.7372 26.6476 28.0979 26.8182 28.4197C26.9782 28.7227 27.2154 28.9765 27.5049 29.1543C27.7981 29.3337 28.1347 29.4265 28.4768 29.4224V29.4224Z" fill="#F89B48"/>
<path d="M33.7672 30.3633C33.7123 30.3687 33.6569 30.3617 33.605 30.3427C33.553 30.3238 33.5059 30.2934 33.4669 30.2537C33.4279 30.214 33.398 30.1661 33.3794 30.1132C33.3607 30.0604 33.3538 30.0041 33.3592 29.9482V24.806C33.3562 24.7496 33.3645 24.6932 33.3836 24.6402C33.4028 24.5871 33.4323 24.5386 33.4705 24.4976C33.5087 24.4566 33.5547 24.424 33.6057 24.4016C33.6567 24.3793 33.7117 24.3678 33.7672 24.3678C33.8227 24.3678 33.8777 24.3793 33.9287 24.4016C33.9797 24.424 34.0257 24.4566 34.0639 24.4976C34.1021 24.5386 34.1316 24.5871 34.1508 24.6402C34.1699 24.6932 34.1782 24.7496 34.1752 24.806V29.9482C34.1806 30.0041 34.1737 30.0604 34.155 30.1132C34.1364 30.1661 34.1065 30.214 34.0675 30.2537C34.0285 30.2934 33.9813 30.3238 33.9294 30.3427C33.8775 30.3617 33.8221 30.3687 33.7672 30.3633V30.3633ZM33.7016 26.6811C33.7163 26.2537 33.8363 25.8369 34.0507 25.469C34.2519 25.1223 34.5361 24.8332 34.877 24.6285C35.2199 24.4236 35.6113 24.3178 36.009 24.3224C36.3384 24.3224 36.5925 24.3698 36.7715 24.4644C36.9504 24.5591 37.0184 24.6973 36.9755 24.8789C36.968 24.9238 36.9513 24.9666 36.9264 25.0045C36.9015 25.0423 36.869 25.0744 36.8311 25.0986C36.7546 25.1367 36.669 25.1518 36.5843 25.1421L36.2569 25.1207C35.8963 25.0783 35.531 25.1201 35.1887 25.2431C34.8947 25.35 34.6376 25.5414 34.4485 25.7941C34.2631 26.0495 34.1667 26.3606 34.1746 26.678L33.7016 26.6811Z" fill="white"/>
<path d="M38.8555 23.2531C38.7794 23.2539 38.7038 23.2388 38.6336 23.2087C38.5634 23.1786 38.5001 23.1341 38.4475 23.078C38.3915 23.0225 38.3474 22.9559 38.3179 22.8822C38.2884 22.8086 38.2741 22.7296 38.276 22.6501C38.2722 22.5693 38.2861 22.4887 38.3167 22.4141C38.3473 22.3395 38.3939 22.2727 38.4529 22.2185C38.5664 22.115 38.714 22.0586 38.8664 22.0606C39.0151 22.0601 39.1586 22.1165 39.2684 22.2185C39.3281 22.2723 39.3753 22.339 39.4065 22.4136C39.4377 22.4883 39.4522 22.5691 39.4489 22.6501C39.4493 22.7291 39.4342 22.8073 39.4047 22.8803C39.3751 22.9533 39.3316 23.0197 39.2767 23.0755C39.2219 23.1313 39.1566 23.1755 39.0849 23.2056C39.0131 23.2357 38.9362 23.251 38.8586 23.2507L38.8555 23.2531ZM38.8664 30.3634C38.8098 30.3684 38.7529 30.3607 38.6996 30.3409C38.6463 30.3211 38.5979 30.2897 38.5577 30.2489C38.5176 30.208 38.4867 30.1588 38.4673 30.1046C38.4478 30.0503 38.4402 29.9924 38.4451 29.9349V24.8141C38.4401 24.7566 38.4476 24.6986 38.467 24.6443C38.4865 24.5901 38.5173 24.5408 38.5575 24.4999C38.5976 24.4591 38.6461 24.4277 38.6995 24.4079C38.7528 24.3882 38.8098 24.3806 38.8664 24.3856C38.9206 24.3833 38.9747 24.3922 39.0254 24.4119C39.0762 24.4316 39.1224 24.4616 39.1613 24.5001C39.1998 24.5414 39.2296 24.5903 39.249 24.6438C39.2683 24.6973 39.2768 24.7542 39.2738 24.8111V29.9349C39.2768 29.9918 39.2683 30.0487 39.249 30.1022C39.2296 30.1556 39.1998 30.2045 39.1613 30.2459C39.1226 30.2849 39.0765 30.3155 39.0258 30.3357C38.9751 30.3559 38.9208 30.3653 38.8664 30.3634Z" fill="white"/>
<path d="M41.7958 32.9158C41.7392 32.9208 41.6823 32.9132 41.6289 32.8935C41.5755 32.8737 41.5271 32.8423 41.4869 32.8015C41.4468 32.7606 41.4159 32.7113 41.3965 32.657C41.3771 32.6028 41.3696 32.5448 41.3745 32.4873V27.3365C41.3735 26.798 41.5124 26.2687 41.7772 25.8024C42.0311 25.3545 42.3978 24.9835 42.8394 24.7274C43.2987 24.4622 43.8194 24.3266 44.3475 24.3344C44.8849 24.3252 45.4149 24.4629 45.8822 24.7329C46.3268 24.9919 46.6956 25.3668 46.9504 25.8189C47.216 26.2945 47.3513 26.8337 47.3422 27.3806C47.3504 27.9222 47.2191 28.4566 46.9612 28.9306C46.7142 29.3875 46.3492 29.7673 45.9058 30.029C45.4623 30.2906 44.957 30.4244 44.4444 30.4157C43.9912 30.422 43.5434 30.315 43.1403 30.1041C42.7659 29.9113 42.4434 29.6284 42.2008 29.2801V32.4897C42.2038 32.5467 42.1954 32.6037 42.176 32.6573C42.1567 32.7108 42.1268 32.7598 42.0883 32.8013C42.0496 32.8395 42.0038 32.8693 41.9535 32.8889C41.9033 32.9086 41.8496 32.9177 41.7958 32.9158V32.9158ZM44.3505 29.6511C44.742 29.6573 45.1278 29.5556 45.4669 29.3566C45.7941 29.1623 46.0631 28.8811 46.2451 28.5431C46.432 28.184 46.5297 27.7838 46.5297 27.3775C46.5297 26.9712 46.432 26.571 46.2451 26.2119C46.0579 25.8693 45.7828 25.5849 45.4492 25.3889C45.1155 25.1929 44.7358 25.0927 44.3505 25.099C43.9676 25.0938 43.5905 25.1947 43.2596 25.3909C42.9287 25.587 42.6566 25.8711 42.4723 26.2125C42.2888 26.5727 42.193 26.9724 42.193 27.3781C42.193 27.7838 42.2888 28.1835 42.4723 28.5437C42.6511 28.8822 42.9185 29.1638 43.245 29.3573C43.5806 29.5552 43.9627 29.6568 44.3505 29.6511V29.6511Z" fill="white"/>
</g>
<defs>
<clipPath id="clip0_2228_2617">
<rect width="48" height="37" fill="white"/>
</clipPath>
</defs>
</svg>
