<svg width="0" height="0" class="hidden">
  <!-- landing page icons -->
  <symbol fill="none" xmlns="http://www.w3.org/2000/svg" viewBox="0 0 39 39" id="circled_arrow">
    <circle cx="19.5" cy="19.5" r="19.5" fill="white"></circle>
    <circle cx="19.5" cy="19.5" r="19.5" fill="#FDF0E1"></circle>
    <path d="M23.0263 13.3037C22.6214 12.8988 21.972 12.8988 21.5671 13.3037C21.1621 13.7086 21.1621 14.358 21.5671 14.7629L25.1961 18.392H11.0314C10.4584 18.392 10 18.8504 10 19.4234C10 19.9964 10.4584 20.4548 11.0314 20.4548H25.1961L21.5747 24.0762C21.1698 24.4811 21.1698 25.1305 21.5747 25.5354C21.7733 25.7341 22.0407 25.841 22.3005 25.841C22.5603 25.841 22.8277 25.7417 23.0263 25.5354L28.4126 20.1492C28.8175 19.7443 28.8175 19.0949 28.4126 18.6899L23.0263 13.3037Z" fill="#FF8F15"></path>
  </symbol>
  <symbol xmlns="http://www.w3.org/2000/svg" viewBox="0 0 16 9" id="eye">
      <path fill-rule="evenodd" clip-rule="evenodd" d="M7.52631 8.905C11.5655 8.905 14.9207 4.96112 14.9207 4.96112C15.1831 4.68021 15.1904 4.21628 14.9289 3.93308C14.9289 3.93308 11.7396 0 7.56115 0C3.38267 0 0.193348 3.93308 0.193348 3.93308C-0.0645367 4.21997 -0.065876 4.68561 0.197905 4.96542C0.197905 4.96542 3.48724 8.90498 7.52639 8.90498L7.52631 8.905ZM7.56116 7.59546C9.29193 7.59546 10.695 6.18837 10.695 4.45258C10.695 2.71682 9.29185 1.30971 7.56116 1.30971C5.8303 1.30971 4.42735 2.71688 4.42735 4.45258C4.42735 6.18835 5.83038 7.59546 7.56116 7.59546ZM7.56116 5.84941C8.33038 5.84941 8.95399 5.22406 8.95399 4.45263C8.95399 3.6812 8.3304 3.05576 7.56116 3.05576C6.79193 3.05576 6.16826 3.6812 6.16826 4.45263C6.16826 5.22406 6.79193 5.84941 7.56116 5.84941Z"></path>
  </symbol>
  <symbol xmlns="http://www.w3.org/2000/svg" viewBox="0 0 8 6" id="long-arrow">
      <path d="M7.30664 3.00004C7.30664 3.16819 7.18169 3.30715 7.01958 3.32914L6.97451 3.33217L1.13615 3.33191L3.24537 5.43252C3.37536 5.56194 3.37581 5.77223 3.24639 5.90222C3.12873 6.02038 2.94424 6.0315 2.81401 5.93531L2.77669 5.90323L0.0975227 3.23558C0.0803885 3.21852 0.0655069 3.20005 0.0528765 3.18055C0.0493088 3.17469 0.0456772 3.16868 0.0422344 3.16256C0.0390677 3.15731 0.0362062 3.15185 0.0335069 3.14634C0.0297575 3.13832 0.026094 3.13004 0.022768 3.12158C0.0200653 3.11507 0.0178089 3.10873 0.0157509 3.10234C0.0133038 3.09441 0.0109262 3.08597 0.00888109 3.07739C0.00736094 3.07141 0.00615692 3.06565 0.00510645 3.05987C0.00362968 3.05126 0.00237226 3.04236 0.00147533 3.03335C0.000700951 3.02647 0.000234604 3.01966 -2.28882e-05 3.01285C-8.96454e-05 3.00872 -0.000173092 3.00439 -0.000173092 3.00004L-7.15256e-06 2.98718C0.000247478 2.98066 0.000692844 2.97415 0.00132942 2.96765L-0.000173092 3.00004C-0.000173092 2.97909 0.00176811 2.95858 0.00548077 2.9387C0.00634193 2.93395 0.00736761 2.92907 0.00850391 2.92422C0.0108628 2.91422 0.0135894 2.90459 0.0167289 2.89515C0.0182695 2.89047 0.0200648 2.88546 0.0219836 2.88048C0.0258646 2.87049 0.0300832 2.86096 0.0347242 2.85168C0.03688 2.84732 0.0392947 2.84275 0.0418234 2.83823C0.0459738 2.83085 0.0502496 2.82384 0.0547709 2.81701C0.057961 2.81217 0.0614934 2.80714 0.0651817 2.80218L0.0680561 2.79836C0.0770044 2.78667 0.0867114 2.77559 0.0971045 2.76519L0.0975032 2.76489L2.77667 0.0967923C2.90664 -0.0326429 3.11693 -0.0322075 3.24637 0.0977647C3.36404 0.215921 3.37437 0.400457 3.27763 0.530279L3.24539 0.567463L1.13703 2.66765L6.97451 2.66792C7.15794 2.66792 7.30664 2.81662 7.30664 3.00004Z"></path>
    </symbol>

  <symbol xmlns="http://www.w3.org/2000/svg" viewBox="0 0 18 17" id="check">
      <path fill-rule="evenodd" clip-rule="evenodd" d="M8.99979 0.394775C4.52348 0.394775 0.894531 4.02372 0.894531 8.50004C0.894531 12.9764 4.52348 16.6053 8.99979 16.6053C13.4761 16.6053 17.1051 12.9764 17.1051 8.50004C17.1051 4.02372 13.4761 0.394775 8.99979 0.394775ZM12.5131 7.12951C12.5778 7.05556 12.627 6.96943 12.6579 6.87616C12.6888 6.7829 12.7008 6.6844 12.693 6.58645C12.6853 6.4885 12.6581 6.39309 12.613 6.30582C12.5678 6.21855 12.5057 6.14119 12.4302 6.07829C12.3547 6.01539 12.2674 5.96822 12.1734 5.93956C12.0795 5.91089 11.9807 5.90132 11.883 5.91139C11.7852 5.92145 11.6905 5.95097 11.6043 5.99819C11.5182 6.04541 11.4423 6.10939 11.3813 6.18635L8.21285 9.98772L6.57337 8.34751C6.4344 8.21329 6.24828 8.13902 6.05508 8.1407C5.86188 8.14238 5.67707 8.21987 5.54045 8.35649C5.40384 8.4931 5.32634 8.67791 5.32467 8.87111C5.32299 9.06431 5.39726 9.25044 5.53148 9.38941L7.742 11.5999C7.8144 11.6723 7.90108 11.7288 7.99652 11.7658C8.09196 11.8028 8.19406 11.8195 8.29631 11.8148C8.39856 11.8102 8.49872 11.7843 8.59041 11.7388C8.6821 11.6933 8.7633 11.6292 8.82885 11.5506L12.5131 7.12951Z"></path>
    </symbol>
   <symbol  xmlns="http://www.w3.org/2000/svg" viewBox="0 0 26 30" id="lock">
      <path d="M12.7271 0C17.3302 0 21.0341 3.62218 21.0341 8.09401V10.394C23.6176 11.2004 25.5 13.5392 25.5 16.3326V23.7379C25.5 27.1962 22.633 30 19.0983 30H6.4032C2.86703 30 0 27.1962 0 23.7379V16.3326C0 13.5392 1.88392 11.2004 4.46593 10.394V8.09401C4.48117 3.62218 8.185 0 12.7271 0ZM12.7424 17.0764C12.0108 17.0764 11.4163 17.6578 11.4163 18.3732V21.6824C11.4163 22.4128 12.0108 22.9941 12.7424 22.9941C13.4892 22.9941 14.0837 22.4128 14.0837 21.6824V18.3732C14.0837 17.6578 13.4892 17.0764 12.7424 17.0764ZM12.7576 2.60857C9.66348 2.60857 7.14854 5.05317 7.13329 8.0642V10.0706H18.3667V8.09401C18.3667 5.06807 15.8518 2.60857 12.7576 2.60857Z" ></path>
  </symbol>
  <symbol  xmlns="http://www.w3.org/2000/svg" viewBox="0 0 19 17" id="arrow_down">
      <path d="M14.1091 0C15.3756 0 16.5939 0.500556 17.4902 1.39872C18.3874 2.295 18.8889 3.50389 18.8889 4.76944V12.2306C18.8889 14.8656 16.745 17 14.1091 17H4.77889C2.14294 17 0 14.8656 0 12.2306V4.76944C0 2.13444 2.1335 0 4.77889 0H14.1091ZM15.1772 4.91111C14.9789 4.90072 14.79 4.96778 14.6474 5.1L10.3889 8.5C9.84111 8.95428 9.05628 8.95428 8.5 8.5L4.25 5.1C3.95628 4.88278 3.55017 4.91111 3.30556 5.16611C3.05056 5.42111 3.02222 5.82722 3.2385 6.11056L3.36222 6.23333L7.65944 9.58611C8.18833 10.0017 8.82961 10.2283 9.50111 10.2283C10.1707 10.2283 10.8233 10.0017 11.3513 9.58611L15.6117 6.17667L15.6872 6.10111C15.9129 5.82722 15.9129 5.43056 15.6768 5.15667C15.5456 5.01594 15.3652 4.93 15.1772 4.91111Z"></path>
  </symbol>

   <symbol  xmlns="http://www.w3.org/2000/svg" viewBox="0 0 30 31" id="go_up">
      <path d="M20.9561 18.9759C21.3449 19.3805 21.978 19.3834 22.3703 18.9825C22.7625 18.5815 22.7654 17.9286 22.3766 17.5241L20.0049 15.0563C19.1116 14.1269 18.3816 13.3672 17.7311 12.8285C17.0546 12.2682 16.368 11.8627 15.5439 11.7544C15.1825 11.7069 14.8168 11.7069 14.4555 11.7544C13.6313 11.8627 12.9447 12.2682 12.2683 12.8285C11.6178 13.3672 10.8878 14.1268 9.99451 15.0563L7.62275 17.5241C7.23397 17.9286 7.2368 18.5815 7.62906 18.9825C8.02132 19.3834 8.65448 19.3805 9.04326 18.9759L11.373 16.5519C12.3185 15.5681 12.9692 14.8932 13.5206 14.4366C14.0562 13.993 14.4002 13.8408 14.7083 13.8003C14.9018 13.7749 15.0975 13.7749 15.291 13.8003C15.5991 13.8408 15.9431 13.993 16.4787 14.4366C17.0301 14.8932 17.6808 15.5681 18.6263 16.5519L20.9561 18.9759Z" ></path>
      <path fill-rule="evenodd" clip-rule="evenodd" d="M29.333 15.5C29.333 7.33654 22.9158 0.71875 14.9997 0.71875C7.08359 0.71875 0.66634 7.33654 0.66634 15.5C0.66634 23.6635 7.08359 30.2813 14.9997 30.2813C22.9158 30.2813 29.333 23.6635 29.333 15.5ZM14.9997 2.78125C21.8112 2.78125 27.333 8.47563 27.333 15.5C27.333 22.5244 21.8112 28.2188 14.9997 28.2188C8.18816 28.2188 2.66634 22.5244 2.66634 15.5C2.66634 8.47563 8.18816 2.78125 14.9997 2.78125Z" ></path>
    </symbol>

      <symbol  xmlns="http://www.w3.org/2000/svg" viewBox="0 0 11 23" id="arrow_right">
      <path d="M0.260057 22.3159C-0.0551635 21.927 -0.0838199 21.3185 0.174088 20.8897L0.260057 20.7668L7.91879 11.318L0.260057 1.86917C-0.0551635 1.48029 -0.0838199 0.871759 0.174088 0.442945L0.260057 0.320093C0.575277 -0.0687847 1.06855 -0.104137 1.41614 0.214035L1.51572 0.320093L9.80269 10.5435C10.1179 10.9323 10.1466 11.5409 9.88866 11.9697L9.80269 12.0925L1.51572 22.3159C1.16898 22.7437 0.606799 22.7437 0.260057 22.3159Z"></path>
    </symbol>
  <symbol  xmlns="http://www.w3.org/2000/svg" viewBox="0 0 11 23" id="arrow_left">
      <path d="M10.7399 0.320824C11.0552 0.709701 11.0838 1.31823 10.8259 1.74704L10.7399 1.8699L3.08119 11.3187L10.7399 20.7676C11.0552 21.1564 11.0838 21.765 10.8259 22.1938L10.7399 22.3166C10.4247 22.7055 9.93145 22.7409 9.58386 22.4227L9.48427 22.3166L1.19728 12.0933C0.882062 11.7044 0.853405 11.0959 1.11131 10.667L1.19728 10.5442L9.48427 0.320824C9.83102 -0.106941 10.3932 -0.106941 10.7399 0.320824Z"></path>
  </symbol>
  <symbol xmlns="http://www.w3.org/2000/svg" viewBox="0 0 40 30" id="dots">
    <circle cx="20" cy="26" r="4" transform="rotate(90 20 26)" fill="#FF8F15"></circle>
    <circle cx="20" cy="4" r="4" transform="rotate(90 20 4)" fill="#FF8F15"></circle>
    <circle cx="28" cy="15" r="4" transform="rotate(90 28 15)" fill="#FF8F15"></circle>
    <circle cx="36" cy="4" r="4" transform="rotate(90 36 4)" fill="#FF8F15"></circle>
    <circle cx="12" cy="15" r="4" transform="rotate(90 12 15)" fill="#FF8F15"></circle>
    <circle cx="4" cy="4" r="4" transform="rotate(90 4 4)" fill="#FF8F15"></circle>
  </symbol>
  <symbol xmlns="http://www.w3.org/2000/svg" viewBox="0 0 34 34" id="plus">
    <path d="M15.35 15.35V8.75H18.65V15.35H25.25V18.65H18.65V25.25H15.35V18.65H8.75V15.35H15.35ZM17 33.5C7.88705 33.5 0.5 26.1129 0.5 17C0.5 7.88705 7.88705 0.5 17 0.5C26.1129 0.5 33.5 7.88705 33.5 17C33.5 26.1129 26.1129 33.5 17 33.5ZM17 30.2C20.5009 30.2 23.8583 28.8093 26.3338 26.3338C28.8093 23.8583 30.2 20.5009 30.2 17C30.2 13.4991 28.8093 10.1417 26.3338 7.66619C23.8583 5.19071 20.5009 3.8 17 3.8C13.4991 3.8 10.1417 5.19071 7.66619 7.66619C5.19071 10.1417 3.8 13.4991 3.8 17C3.8 20.5009 5.19071 23.8583 7.66619 26.3338C10.1417 28.8093 13.4991 30.2 17 30.2Z"></path>
  </symbol>
  <symbol  xmlns="http://www.w3.org/2000/svg" viewBox="0 0 34 34" id="minus">
    <path d="M17 33.5C7.88705 33.5 0.5 26.1129 0.5 17C0.5 7.88705 7.88705 0.5 17 0.5C26.1129 0.5 33.5 7.88705 33.5 17C33.5 26.1129 26.1129 33.5 17 33.5ZM17 30.2C20.5009 30.2 23.8583 28.8093 26.3338 26.3338C28.8093 23.8583 30.2 20.5009 30.2 17C30.2 13.4991 28.8093 10.1417 26.3338 7.66619C23.8583 5.19071 20.5009 3.8 17 3.8C13.4991 3.8 10.1417 5.19071 7.66619 7.66619C5.19071 10.1417 3.8 13.4991 3.8 17C3.8 20.5009 5.19071 23.8583 7.66619 26.3338C10.1417 28.8093 13.4991 30.2 17 30.2Z" ></path>
    <path d="M25.25 15.35H18.65H15.35H8.75V18.65H15.35H18.65H25.25V15.35Z" ></path>
  </symbol>

  <symbol  xmlns="http://www.w3.org/2000/svg" viewBox="0 0 20 16" id="message">
    <path d="M10.5376 8.73204C10.3775 8.84937 10.1888 8.90797 10 8.90797C9.81118 8.90797 9.62246 8.84937 9.4624 8.73204L1.81818 3.1263L6.06059e-05 1.79303L0 14.6656C6.06059e-05 15.1677 0.407029 15.5747 0.909088 15.5747L19.0909 15.5746C19.593 15.5746 20 15.1676 20 14.6656V1.79297L18.1818 3.1263L10.5376 8.73204Z" ></path>
    <path d="M10.0003 6.87229L18.7934 0.423889L1.20703 0.423828L10.0003 6.87229Z"></path>
  </symbol>
    <symbol  xmlns="http://www.w3.org/2000/svg" viewBox="0 0 24 27" id="twitter">
    <path d="M12 0C5.37299 0 0 6.04463 0 13.5C0 20.9554 5.37299 27 12 27C18.627 27 24 20.9554 24 13.5C24 6.04463 18.627 0 12 0ZM18.464 10.7269C18.47 10.8765 18.473 11.025 18.473 11.1735C18.473 15.75 15.378 21.024 9.71699 21.024C7.97799 21.024 6.36099 20.4514 5 19.4681C5.24099 19.5007 5.48599 19.5154 5.73499 19.5154C7.17799 19.5154 8.50399 18.963 9.55599 18.0326C8.20899 18.0045 7.07199 17.0033 6.68099 15.6285C6.86899 15.669 7.06199 15.6904 7.25999 15.6904C7.54099 15.6904 7.81399 15.6476 8.07099 15.5689C6.66299 15.2516 5.60199 13.8521 5.60199 12.1747C5.60199 12.1601 5.60199 12.1455 5.60199 12.1309C6.01699 12.3907 6.49099 12.546 6.99599 12.564C6.17099 11.9441 5.62699 10.8833 5.62699 9.68288C5.62699 9.04725 5.77799 8.45213 6.04299 7.9425C7.56099 10.0373 9.82899 11.4165 12.386 11.5605C12.334 11.3074 12.307 11.043 12.307 10.7719C12.307 8.8605 13.685 7.30912 15.384 7.30912C16.269 7.30912 17.069 7.72988 17.63 8.40263C18.331 8.24625 18.99 7.95937 19.585 7.56225C19.355 8.37113 18.867 9.04838 18.231 9.47813C18.853 9.39488 19.446 9.20925 19.999 8.93363C19.588 9.62887 19.067 10.2375 18.464 10.7269Z"></path>
  </symbol>
  <symbol  xmlns="http://www.w3.org/2000/svg" viewBox="0 0 25 27" id="linkedin">
    <path d="M12.5 0C5.87299 0 0.5 6.04463 0.5 13.5C0.5 20.9554 5.87299 27 12.5 27C19.127 27 24.5 20.9554 24.5 13.5C24.5 6.04463 19.127 0 12.5 0ZM7.99599 6.07837C8.83799 6.07837 9.39899 6.7095 9.39899 7.551C9.39899 8.3925 8.83799 9.02362 7.90299 9.02362C7.06099 9.02475 6.49999 8.3925 6.49999 7.551C6.49999 6.7095 7.06099 6.07837 7.99599 6.07837ZM9.49999 19.125H6.49999V10.125H9.49999V19.125ZM19.5 19.125H16.676V14.2065C16.676 12.8464 15.923 12.5325 15.641 12.5325C15.359 12.5325 14.417 12.7418 14.417 14.2065C14.417 14.4158 14.417 19.125 14.417 19.125H11.5V10.125H14.418V11.3805C14.794 10.6481 15.547 10.125 16.959 10.125C18.371 10.125 19.5 11.3805 19.5 14.2065V19.125Z" ></path>
  </symbol>
  <symbol  xmlns="http://www.w3.org/2000/svg" viewBox="0 0 25 27" id="facebook">
    <path d="M12.5 0C5.87299 0 0.5 6.04463 0.5 13.5C0.5 20.9554 5.87299 27 12.5 27C19.127 27 24.5 20.9554 24.5 13.5C24.5 6.04463 19.127 0 12.5 0ZM16.681 9H14.952C13.876 9 13.5 9.639 13.5 10.9327V12.375H16.654L16.226 15.75H13.5V24.6937C13.171 24.7297 12.838 24.75 12.5 24.75C11.815 24.75 11.146 24.6712 10.5 24.5239V15.75H7.49999V12.375H10.5V10.5626C10.5 7.13137 11.986 5.625 14.521 5.625C15.735 5.625 16.377 5.72625 16.681 5.77237V9Z" ></path>
  </symbol>
  <symbol xmlns="http://www.w3.org/2000/svg" viewBox="0 0 23 17" id="long_arrow">
    <path fill-rule="evenodd" clip-rule="evenodd" d="M23 8.50638C23 8.31447 22.9209 8.13119 22.7894 7.99319L15.6745 0.80641C15.3935 0.522504 14.9385 0.523223 14.6582 0.80641C14.3772 1.0896 14.3772 1.5496 14.6582 1.83279L20.5469 7.78044H0.71875C0.322 7.78044 0 8.10532 0 8.50638C0 8.90744 0.322 9.23232 0.71875 9.23232H20.5462L14.6582 15.18C14.3772 15.4632 14.3779 15.9232 14.6582 16.2063C14.9392 16.4895 15.3942 16.4895 15.6745 16.2063L22.7894 9.01957C22.9238 8.88372 22.9978 8.69685 23 8.50638Z"></path>
  </symbol>
  <!-- serach icon in products page -->
  <symbol  xmlns="http://www.w3.org/2000/svg" viewBox="0 0 30 31" id="search">
    <path d="M10.5 14.8431C10.4748 14.8164 10.4496 14.794 10.423 14.7703L10.42 14.7677L10.5 14.8431ZM10.5 14.8431C12.16 16.5446 13.0754 18.7985 13.0754 21.1908V27.2061L10.5 14.8431ZM9.00415 16.4709L9.00358 16.4715C10.2073 17.7501 10.8677 19.4193 10.8677 21.1908V28.2246C10.8677 28.8233 11.1738 29.3614 11.685 29.6664C11.9497 29.8234 12.2397 29.9015 12.5323 29.9015C12.8031 29.9015 13.0744 29.8335 13.3245 29.6983C13.3246 29.6983 13.3247 29.6982 13.3247 29.6982L17.572 27.3846L9.00415 16.4709ZM9.00415 16.4709L8.99446 16.4629M9.00415 16.4709L8.99446 16.4629M8.99446 16.4629C8.96149 16.4357 8.92987 16.4067 8.90324 16.3773L8.90208 16.3761M8.99446 16.4629L8.90208 16.3761M8.90208 16.3761L1.44669 8.44841L1.44667 8.44839M8.90208 16.3761L1.44667 8.44839M1.44667 8.44839C0.578091 7.52552 0.1 6.3147 0.1 5.04154M1.44667 8.44839L0.1 5.04154M0.1 5.04154V3.60154M0.1 5.04154V3.60154M0.1 3.60154C0.1 1.66958 1.65472 0.1 3.56154 0.1M0.1 3.60154L3.56154 0.1M3.56154 0.1H26.44M3.56154 0.1H26.44M26.44 0.1C28.3452 0.1 29.9 1.66955 29.9 3.60154M26.44 0.1L29.9 3.60154M29.9 3.60154V5.04154M29.9 3.60154V5.04154M29.9 5.04154C29.9 6.31304 29.422 7.52238 28.5564 8.44687M29.9 5.04154L28.5564 8.44687M28.5564 8.44687L28.5562 8.44703M28.5564 8.44687L28.5562 8.44703M28.5562 8.44703L21.1005 16.375C21.1003 16.3752 21.1002 16.3754 21.1 16.3756C19.8467 17.6681 19.1615 19.3683 19.1615 21.1723V24.6908C19.1615 25.8175 18.5521 26.8483 17.5722 27.3845L28.5562 8.44703ZM10.3471 14.8362L10.3469 14.8365L10.3536 14.8424L10.3553 14.844C10.3828 14.8685 10.4051 14.8883 10.4273 14.9117L10.4273 14.9117L10.4284 14.9129C12.0701 16.5957 12.9754 18.8244 12.9754 21.1908V27.32V27.4883L13.1232 27.4078L16.5632 25.534L16.5633 25.5339C16.8675 25.368 17.0538 25.0443 17.0538 24.6908V21.1723C17.0538 18.815 17.9501 16.5939 19.5763 14.9205L19.5775 14.9193L27.019 7.00388L26.9462 6.93538L27.019 7.00387C27.5182 6.47281 27.7923 5.77593 27.7923 5.04154V3.60154C27.7923 2.83547 27.1874 2.20769 26.44 2.20769H3.56154C2.81266 2.20769 2.20769 2.83539 2.20769 3.60154V5.04154C2.20769 5.77586 2.48177 6.47277 2.98099 7.00235C2.98102 7.00238 2.98105 7.00241 2.98108 7.00244L10.3471 14.8362Z"  stroke="white" stroke-width="0.2"></path>
  </symbol>
  <!-- about us -->
  <symbol xmlns="http://www.w3.org/2000/svg" viewBox="0 0 31 32" id="round_circle">
    <path d="M14.9414 16.5554L21.6076 9.88867" stroke="#FF8F15" stroke-miterlimit="10" stroke-linecap="round" stroke-linejoin="round"></path>
    <path d="M30.5016 5.44448H26.0574V1L21.6133 5.44448V9.88897H26.0574L30.5016 5.44448Z" stroke="#FF8F15" stroke-miterlimit="10" stroke-linecap="round" stroke-linejoin="round"></path>
    <path d="M14.9397 23.2221C18.6213 23.2221 21.6059 20.2373 21.6059 16.5554C21.6059 12.8735 18.6213 9.88867 14.9397 9.88867C11.258 9.88867 8.27344 12.8735 8.27344 16.5554C8.27344 20.2373 11.258 23.2221 14.9397 23.2221Z" stroke="#FF8F15" stroke-miterlimit="10" stroke-linecap="round" stroke-linejoin="round"></path>
    <path d="M27.1649 8.77806C28.6092 11.0003 29.3869 13.667 29.3869 16.5559C29.3869 24.556 22.9429 31.0005 14.9435 31.0005C6.94401 31.0005 0.5 24.556 0.5 16.5559C0.5 8.55583 6.94401 2.11133 14.9435 2.11133C17.8322 2.11133 20.4986 2.88911 22.7207 4.33357" stroke="#FF8F15" stroke-miterlimit="10" stroke-linecap="round" stroke-linejoin="round"></path>
  </symbol>

  <symbol xmlns="http://www.w3.org/2000/svg" viewBox="0 0 31 22" id="circle_eye">
    <path d="M22.2551 5.88406L22.7096 5.42768L23.9395 4.19266L23.94 4.19208C23.953 4.17914 23.9631 4.16388 23.97 4.14727L23.9701 4.14712C23.977 4.13048 23.9805 4.11258 23.9805 4.09452C23.9805 4.07645 23.977 4.05856 23.9701 4.04192L23.97 4.04176C23.9631 4.02516 23.953 4.0099 23.94 3.99696C23.9274 3.98431 23.9122 3.97417 23.8953 3.96718L24.0868 3.5053M22.2551 5.88406L29.9719 12.5079C29.9694 12.511 29.9662 12.515 29.9625 12.5196C29.7766 12.7509 28.142 14.7853 25.5775 16.7782C22.9533 18.8175 19.4152 20.7669 15.5 20.7669C11.5847 20.7669 8.04403 18.8175 5.41861 16.7782C2.80053 14.7445 1.15251 12.6681 1.03378 12.5151L1.03383 12.515L1.02873 12.5087C1.01011 12.4855 1 12.4567 1 12.427C1 12.3978 1.00981 12.3695 1.02791 12.3465C3.03012 9.89488 5.44784 7.81453 8.17066 6.20035L8.72334 5.8727L8.26996 5.41743L7.04007 4.18241L7.03934 4.18168C7.0135 4.15584 6.99899 4.12083 6.99899 4.08427C6.99899 4.04771 7.0135 4.0127 7.03934 3.98686C7.06517 3.96103 7.10019 3.94652 7.13674 3.94652C7.17327 3.94652 7.20833 3.96104 7.23415 3.98686L7.23414 3.98687L7.23713 3.98982L8.7745 5.50157L9.02846 5.75129L9.34746 5.59288C11.075 4.73499 12.9562 4.22973 14.8811 4.10667L15.3492 4.07674V3.60769V0.640569C15.3492 0.603277 15.364 0.5675 15.3904 0.541164C15.4167 0.514813 15.4524 0.5 15.4898 0.5C15.527 0.5 15.5628 0.514797 15.5891 0.541164L15.5892 0.541239C15.6155 0.56755 15.6303 0.603288 15.6303 0.640569V3.61794V4.08699L16.0984 4.11692C18.0234 4.23997 19.9045 4.74523 21.6321 5.60312L21.9511 5.76154L22.205 5.51181L23.7424 4.00007L23.7424 4.00008L23.7455 3.99696C23.7581 3.98437 23.7732 3.97421 23.7902 3.96718L23.5987 3.5053M22.2551 5.88406L22.8099 6.2112M22.2551 5.88406L22.8099 6.2112M24.0868 3.5053L23.8956 3.96729C23.8788 3.96032 23.8608 3.95677 23.8428 3.95677C23.8247 3.95677 23.8067 3.96033 23.7899 3.96729L23.5987 3.5053M24.0868 3.5053C24.0094 3.47327 23.9265 3.45677 23.8428 3.45677C23.759 3.45677 23.6761 3.47327 23.5987 3.5053M24.0868 3.5053C24.1642 3.53738 24.2345 3.58432 24.2938 3.64356C24.3529 3.7028 24.3999 3.77311 24.432 3.85044C24.464 3.92782 24.4805 4.01078 24.4805 4.09452C24.4805 4.17825 24.464 4.26122 24.432 4.3386L23.5987 3.5053M22.8099 6.2112C25.5388 7.82032 27.9632 9.89716 29.9723 12.3467L22.8099 6.2112ZM1.60803 12.1004L1.32608 12.427L1.60803 12.7537C2.31687 13.575 4.09174 15.4974 6.52522 17.2181C8.95261 18.9344 12.0856 20.4858 15.5 20.4858C18.9144 20.4858 22.0474 18.9344 24.4748 17.2181C26.9083 15.4974 28.6831 13.575 29.392 12.7537L29.6739 12.427L29.392 12.1004C28.6831 11.279 26.9083 9.35668 24.4748 7.63602C22.0474 5.91965 18.9144 4.36833 15.5 4.36833C12.0856 4.36833 8.95261 5.91965 6.52522 7.63602C4.09174 9.35668 2.31687 11.279 1.60803 12.1004Z"  stroke="#FF8F15"></path>
    <path d="M13.1423 8.91382L13.1423 8.91383C12.445 9.37974 11.9015 10.042 11.5806 10.8168C11.2597 11.5916 11.1757 12.4441 11.3393 13.2666L13.1423 8.91382ZM13.1423 8.91382C13.8395 8.44795 14.6592 8.19927 15.4978 8.19922C16.622 8.20048 17.6999 8.64765 18.4948 9.44264L18.4948 9.44266C19.2899 10.2377 19.7371 11.3156 19.7383 12.44C19.7382 13.2784 19.4895 14.098 19.0237 14.7952L19.0237 14.7952C18.5577 15.4925 17.8955 16.036 17.1207 16.3569C16.3459 16.6778 15.4933 16.7618 14.6708 16.5982C13.8483 16.4346 13.0928 16.0307 12.4998 15.4377L12.4998 15.4377M13.1423 8.91382L12.4998 15.4377M12.4998 15.4377C11.9068 14.8447 11.5029 14.0892 11.3393 13.2667L12.4998 15.4377ZM15.4988 16.3985L15.498 16.3985C14.715 16.3985 13.9495 16.1663 13.2985 15.7313C12.6475 15.2962 12.14 14.6779 11.8403 13.9545C11.5407 13.2311 11.4623 12.435 11.615 11.6671L11.615 11.667C11.7678 10.8991 12.1448 10.1936 12.6985 9.63993C13.2522 9.08625 13.9577 8.70917 14.7256 8.55643L15.4988 16.3985ZM15.4988 16.3985C16.5481 16.397 17.5541 15.9794 18.296 15.2375L18.2961 15.2375C19.0381 14.4955 19.4556 13.4895 19.4571 12.4402V12.4394M15.4988 16.3985L19.4571 12.4394M19.4571 12.4394C19.4571 11.6564 19.2249 10.8909 18.7899 10.2399C18.3549 9.58884 17.7365 9.08138 17.0131 8.78172C16.2897 8.48207 15.4937 8.40364 14.7257 8.55643L19.4571 12.4394Z"  stroke="#FF8F15"></path>
  </symbol>

    <symbol  xmlns="http://www.w3.org/2000/svg" viewBox="0 0 70 70" id="github">
    <path d="M65.305 17.8687C62.1752 12.3717 57.9298 8.01971 52.5678 4.81176C47.2049 1.60365 41.3503 0 34.9997 0C28.6499 0 22.7933 1.60414 17.4316 4.81176C12.0691 8.01955 7.82385 12.3717 4.69406 17.8687C1.56474 23.3655 0 29.3681 0 35.8763C0 43.6941 2.22508 50.7241 6.67636 56.968C11.1272 63.2124 16.8769 67.5333 23.9252 69.9312C24.7456 70.0873 25.353 69.9775 25.7479 69.6046C26.1429 69.2312 26.3402 68.7636 26.3402 68.2037C26.3402 68.1103 26.3324 67.2697 26.3172 65.6812C26.3016 64.0926 26.2943 62.7067 26.2943 61.5242L25.246 61.7101C24.5777 61.8356 23.7346 61.8888 22.7167 61.8737C21.6993 61.8591 20.6431 61.7498 19.5496 61.5466C18.4556 61.3452 17.438 60.8781 16.4961 60.1462C15.5547 59.4143 14.8863 58.4563 14.4913 57.2737L14.0356 56.1987C13.7318 55.483 13.2536 54.688 12.6003 53.8165C11.947 52.9443 11.2863 52.3529 10.618 52.0416L10.2989 51.8074C10.0863 51.6518 9.889 51.4641 9.70655 51.2464C9.52427 51.0286 9.3878 50.8106 9.29665 50.5924C9.20535 50.3739 9.28101 50.1948 9.52443 50.0542C9.76785 49.9137 10.2078 49.8454 10.8461 49.8454L11.7572 49.985C12.3648 50.1099 13.1165 50.4827 14.0131 51.106C14.9092 51.7287 15.6458 52.5383 16.2231 53.5344C16.9223 54.8117 17.7646 55.7849 18.7524 56.4546C19.7395 57.1243 20.7347 57.4586 21.7372 57.4586C22.7396 57.4586 23.6053 57.3807 24.3348 57.2257C25.0634 57.07 25.7471 56.8358 26.3854 56.5246C26.6588 54.4371 27.4033 52.8335 28.6181 51.7125C26.8866 51.526 25.3298 51.2451 23.9471 50.8715C22.5651 50.4975 21.137 49.8904 19.6637 49.0488C18.1896 48.2083 16.9668 47.1645 15.9949 45.9194C15.0228 44.6736 14.225 43.038 13.6027 41.0142C12.98 38.9895 12.6686 36.654 12.6686 34.0069C12.6686 30.2379 13.8689 27.0306 16.2691 24.3833C15.1448 21.5497 15.2509 18.3731 16.5879 14.854C17.469 14.5734 18.7756 14.784 20.5071 15.4844C22.239 16.1852 23.507 16.7855 24.3124 17.2833C25.1179 17.7808 25.7632 18.2025 26.2494 18.5445C29.0754 17.735 31.9918 17.3302 34.9994 17.3302C38.0069 17.3302 40.9239 17.735 43.7501 18.5445L45.4818 17.4238C46.666 16.6761 48.0644 15.9908 49.6737 15.3679C51.2839 14.7453 52.5152 14.5739 53.3663 14.8545C54.733 18.3738 54.8548 21.5502 53.7301 24.3838C56.1301 27.0311 57.3309 30.2392 57.3309 34.0074C57.3309 36.6545 57.0184 38.9974 56.3967 41.0376C55.7742 43.0781 54.9695 44.712 53.9825 45.9428C52.9943 47.1734 51.7636 48.2089 50.2903 49.0493C48.8167 49.8903 47.3881 50.4973 46.0062 50.8713C44.6236 51.2454 43.0668 51.5265 41.3353 51.7133C42.9145 53.1143 43.7043 55.3256 43.7043 58.3464V68.2024C43.7043 68.7623 43.8943 69.2298 44.2745 69.6033C44.6542 69.9762 45.2539 70.086 46.0743 69.9297C53.1236 67.5322 58.8733 63.2111 63.324 56.9667C67.7741 50.7228 70 43.6928 70 35.875C69.9984 29.3676 68.4329 23.3655 65.305 17.8687Z" ></path>
  </symbol>
    <!-- projects -->
    <symbol  xmlns="http://www.w3.org/2000/svg" viewBox="0 0 20 20" id="location">
    <path d="M9.99933 0C6.76773 0 4.13867 2.62906 4.13867 5.86066C4.13867 6.74196 4.32957 7.58895 4.70591 8.37867C4.71348 8.39556 4.72144 8.41215 4.72992 8.42874L9.15795 17.0023C9.32052 17.317 9.64511 17.5147 9.99926 17.5147C10.3535 17.5147 10.6781 17.3171 10.8406 17.0023L15.2674 8.43109C15.275 8.41632 15.2822 8.4014 15.289 8.38632C15.6678 7.59433 15.8598 6.74477 15.8598 5.86066C15.86 2.62906 13.2309 0 9.99933 0ZM9.99933 8.92825C8.30786 8.92825 6.93174 7.55214 6.93174 5.86066C6.93174 4.16926 8.30786 2.79314 9.99933 2.79314C11.6908 2.79314 13.0669 4.16926 13.0669 5.86066C13.0669 7.55214 11.6908 8.92825 9.99933 8.92825Z" ></path>
    <path d="M12.257 18.8633H7.74197C7.42813 18.8633 7.17383 19.1176 7.17383 19.4314C7.17383 19.7453 7.42813 19.9996 7.74197 19.9996H12.257C12.5708 19.9996 12.8251 19.7453 12.8251 19.4314C12.8251 19.1176 12.5707 18.8633 12.257 18.8633Z" ></path>
  </symbol>

    <symbol fill="none" xmlns="http://www.w3.org/2000/svg" viewBox="0 0 20 20" id="date">
    <path d="M5.20927 1.60254C4.89461 1.60254 4.64425 1.84087 4.64425 2.13296V5.60955C4.64425 5.90164 4.89461 6.13421 5.20927 6.13421H5.51484C5.8295 6.13421 6.08562 5.90164 6.08562 5.60955V2.13296C6.08562 1.84087 5.8295 1.60254 5.51484 1.60254H5.20927ZM14.4571 1.60254C14.1424 1.60254 13.8863 1.84087 13.8863 2.13296V5.60955C13.8863 5.90164 14.1424 6.13421 14.4571 6.13421H14.7569C15.0716 6.13421 15.3277 5.90164 15.3277 5.60955V2.13296C15.3277 1.84087 15.0716 1.60254 14.7569 1.60254H14.4571ZM2.86848 4.13935C1.85078 4.13935 1.0293 4.94351 1.0293 5.94395V16.5524C1.0293 17.5529 1.85078 18.3628 2.86848 18.3628H17.1035C18.1212 18.3628 18.9426 17.5529 18.9426 16.5524V5.94395C18.9426 4.94351 18.1212 4.13935 17.1035 4.13935H15.7082V5.90359C15.7082 6.35043 15.319 6.71075 14.8376 6.71075H14.3764C13.895 6.71075 13.5058 6.35043 13.5058 5.90359V4.13935H6.46614V5.90359C6.46614 6.35043 6.07693 6.71075 5.59556 6.71075H5.12855C4.64718 6.71075 4.26373 6.35043 4.26373 5.90359V4.13935H2.86848ZM2.18239 9.17261H17.7838V15.8606C17.7838 16.534 17.2465 17.0713 16.573 17.0713H3.39891C2.72549 17.0713 2.18239 16.534 2.18239 15.8606V9.17261Z"></path>
  </symbol>

  <!-- dashboard icons -->
  <symbol xmlns="http://www.w3.org/2000/svg" viewBox="0 0 25 25" id="services">
    <path fill-rule="evenodd" clip-rule="evenodd" d="M12.6573 2.77197C12.543 2.77197 12.2617 2.80323 12.1123 3.10081L9.81893 7.66575C9.45597 8.38719 8.75641 8.88857 7.94759 9.0036L2.81334 9.74004C2.47424 9.78881 2.3587 10.0389 2.32353 10.1439C2.29213 10.2452 2.2419 10.5027 2.4755 10.7253L6.18803 14.2762C6.77958 14.8426 7.04834 15.6591 6.90768 16.458L6.03355 21.4719C5.97955 21.7857 6.17673 21.9682 6.26464 22.0308C6.35758 22.1008 6.60626 22.2396 6.91396 22.0795L11.5044 19.7101C12.2278 19.3388 13.0894 19.3388 13.8103 19.7101L18.3995 22.0783C18.7084 22.2371 18.9571 22.0983 19.0513 22.0308C19.1392 21.9682 19.3364 21.7857 19.2824 21.4719L18.4057 16.458C18.2651 15.6591 18.5338 14.8426 19.1254 14.2762L22.8379 10.7253C23.0728 10.5027 23.0225 10.2439 22.9899 10.1439C22.956 10.0389 22.8404 9.78881 22.5013 9.74004L17.3671 9.0036C16.5595 8.88857 15.86 8.38719 15.497 7.6645L13.2012 3.10081C13.053 2.80323 12.7716 2.77197 12.6573 2.77197ZM6.6251 24.0275C6.1064 24.0275 5.59146 23.865 5.15063 23.5449C4.38954 22.9898 4.01653 22.0733 4.17854 21.1505L5.05267 16.1367C5.08532 15.9504 5.02127 15.7616 4.88312 15.6291L1.17059 12.0782C0.48736 11.4267 0.242453 10.464 0.531317 9.57C0.822693 8.66601 1.59384 8.01959 2.54458 7.88456L7.67882 7.14812C7.87726 7.12061 8.04807 6.99933 8.13347 6.82678L10.4281 2.26059C10.8513 1.41912 11.7053 0.896484 12.6573 0.896484C13.6093 0.896484 14.4634 1.41912 14.8866 2.26059L17.1825 6.82553C17.2691 6.99933 17.4387 7.12061 17.6358 7.14812L22.7701 7.88456C23.7208 8.01959 24.492 8.66601 24.7833 9.57C25.0722 10.464 24.8261 11.4267 24.1428 12.0782L20.4303 15.6291C20.2921 15.7616 20.2293 15.9504 20.262 16.1355L21.1374 21.1505C21.2981 22.0745 20.9251 22.991 20.1628 23.5449C19.3904 24.1088 18.3844 24.1851 17.5316 23.7425L12.9437 21.3756C12.7641 21.2831 12.5493 21.2831 12.3697 21.3756L7.78181 23.7437C7.41508 23.9338 7.01946 24.0275 6.6251 24.0275Z"></path>
  </symbol>
  <symbol xmlns="http://www.w3.org/2000/svg" viewBox="0 0 24 24" id="projects">
    <path fill-rule="evenodd" clip-rule="evenodd" d="M17.094 0.293945C21.0137 0.293945 23.6474 3.03316 23.6474 7.1097V16.6098C23.6474 20.6863 21.0137 23.4256 17.094 23.4256H6.96554C3.0458 23.4256 0.412109 20.6863 0.412109 16.6098V7.1097C0.412109 3.03316 3.0458 0.293945 6.96554 0.293945H17.094ZM17.094 1.90778H6.96554C3.96981 1.90778 2.03318 3.94874 2.03318 7.1097V16.6098C2.03318 19.7708 3.96981 21.8117 6.96554 21.8117H17.094C20.0908 21.8117 22.0263 19.7708 22.0263 16.6098V7.1097C22.0263 3.94874 20.0908 1.90778 17.094 1.90778ZM7.02725 9.11892C7.47467 9.11892 7.83779 9.48042 7.83779 9.92584V17.3064C7.83779 17.7519 7.47467 18.1134 7.02725 18.1134C6.57984 18.1134 6.21672 17.7519 6.21672 17.3064V9.92584C6.21672 9.48042 6.57984 9.11892 7.02725 9.11892ZM12.0709 5.5857C12.5183 5.5857 12.8815 5.9472 12.8815 6.39262V17.3054C12.8815 17.7508 12.5183 18.1123 12.0709 18.1123C11.6235 18.1123 11.2604 17.7508 11.2604 17.3054V6.39262C11.2604 5.9472 11.6235 5.5857 12.0709 5.5857ZM17.0317 13.019C17.4791 13.019 17.8423 13.3805 17.8423 13.8259V17.3054C17.8423 17.7508 17.4791 18.1123 17.0317 18.1123C16.5843 18.1123 16.2212 17.7508 16.2212 17.3054V13.8259C16.2212 13.3805 16.5843 13.019 17.0317 13.019Z"></path>
  </symbol>
  <symbol xmlns="http://www.w3.org/2000/svg" viewBox="0 0 23 24" id="home">
    <path d="M8.3827 16.5239L1.99299 15.9385L1.41211 18.8655L1.99299 20.6217L3.73564 22.3779H6.05917H7.80182V20.0363L8.3827 18.2801V16.5239Z"></path>
    <path d="M15.7658 22.4594L15.7658 22.4596H15.7771H17.8364C19.7273 22.4596 21.2785 20.9466 21.2785 19.0683V9.68453H21.2785L21.2785 9.67764C21.2687 8.97311 20.932 8.31576 20.365 7.88199L13.2454 2.22931L13.2441 2.22828C12.1059 1.3308 10.5123 1.3314 9.37173 2.23035L9.37172 2.23034L9.36916 2.23238L2.29926 7.87983C1.71593 8.32361 1.37763 8.98128 1.37069 9.69798L1.37067 9.69798V9.70282V19.0683C1.37067 20.9466 2.92191 22.4596 4.81273 22.4596H6.89151C7.44684 22.4596 7.92201 22.0179 7.92201 21.4444C7.92201 21.4217 7.92485 21.3953 7.93095 21.3675L7.94254 21.3146V21.2604V18.1465C7.94254 17.1484 8.76665 16.3211 9.78775 16.3134H12.9096C13.9397 16.3134 14.7693 17.1416 14.7693 18.1465V21.4551C14.7693 22.0165 15.2223 22.4472 15.7658 22.4594ZM9.79143 16.9269L9.78873 16.9269C9.12399 16.9305 8.56321 17.4688 8.56321 18.1465V21.4444C8.56321 21.4802 8.55844 21.5072 8.55217 21.5275L8.53793 21.5734L8.53269 21.6211C8.4439 22.4315 7.7449 23.073 6.89151 23.073H4.81273C2.56651 23.073 0.75 21.2698 0.75 19.0683V9.69791C0.759955 8.78518 1.18093 7.95285 1.91128 7.40225L1.9114 7.40241L1.9224 7.39362L8.98064 1.75393C8.98104 1.75361 8.98144 1.7533 8.98184 1.75298C10.3549 0.670934 12.264 0.671431 13.6332 1.75117C13.6334 1.75136 13.6337 1.75154 13.6339 1.75173L20.7442 7.39779L20.7441 7.39788L20.7529 7.40458C21.4644 7.94432 21.8862 8.77511 21.8992 9.67618V19.0683C21.8992 21.2698 20.0827 23.073 17.8364 23.073H15.7639C14.8397 23.0485 14.1486 22.3336 14.1486 21.4551V18.1465C14.1486 17.4608 13.5803 16.9269 12.9096 16.9269L9.79143 16.9269Z" stroke="white"></path>
    <path d="M14.7721 18.8671C14.7721 17.4622 13.9976 16.3304 13.6104 15.9401C23.2394 12.7055 21.7393 22.3795 15.9339 22.3795C14.7721 22.3795 14.7721 20.6233 14.7721 18.8671Z"></path>
    <path d="M18.2575 18.8658L17.6766 16.5242L18.0977 15.6754L18.8384 14.1826L21.1619 14.768V15.9388V18.2804L20.581 21.2074L18.8384 22.3782H17.6766L17.0957 20.622L18.8384 20.0366L18.2575 18.8658Z"></path>
    <path d="M10.1253 1.30371L1.41211 8.32852V16.5241H10.1253L21.1621 15.3533L21.743 10.6701L21.1621 8.32852L11.868 1.30371H10.1253Z"></path>
  </symbol>
  <symbol xmlns="http://www.w3.org/2000/svg" viewBox="0 0 24 24" id="products">
    <path fill-rule="evenodd" clip-rule="evenodd" d="M5.47621 13.5779C10.3246 13.5779 10.5403 15.2149 10.5403 18.6194C10.5403 20.3252 10.5403 21.5387 9.82062 22.4272C8.99249 23.4509 7.48517 23.6609 5.47621 23.6609C3.46725 23.6609 1.95994 23.4509 1.13181 22.4272C0.412109 21.5387 0.412109 20.3264 0.412109 18.6491L1.30577 18.6194H0.412109C0.412109 15.2149 0.627781 13.5779 5.47621 13.5779ZM18.5833 13.5779C23.4317 13.5779 23.6474 15.2149 23.6474 18.6194C23.6474 20.3252 23.6474 21.5387 22.9277 22.4272C22.0996 23.4509 20.5923 23.6609 18.5833 23.6609C16.5743 23.6609 15.067 23.4509 14.2389 22.4272C13.5192 21.5387 13.5192 20.3264 13.5192 18.6491L14.4129 18.6194H13.5192C13.5192 15.2149 13.7349 13.5779 18.5833 13.5779ZM5.72186 15.3578L5.47621 15.3573C2.36748 15.3573 2.20806 15.5793 2.19988 18.177L2.20038 19.189C2.20603 20.2222 2.24557 20.9685 2.52235 21.3122C2.83811 21.7012 3.77587 21.8816 5.47621 21.8816C7.17656 21.8816 8.11431 21.7001 8.43007 21.311C8.75298 20.9112 8.75298 19.9622 8.75298 18.6479C8.75298 15.682 8.75298 15.3717 5.72186 15.3578ZM18.829 15.3578L18.5833 15.3573C15.4746 15.3573 15.3151 15.5793 15.307 18.177L15.3075 19.189C15.3131 20.2222 15.3527 20.9685 15.6294 21.3122C15.9452 21.7012 16.883 21.8816 18.5833 21.8816C20.2836 21.8816 21.2214 21.7001 21.5372 21.311C21.8601 20.9112 21.8601 19.9622 21.8601 18.6479C21.8601 15.682 21.8601 15.3717 18.829 15.3578ZM5.47621 0.529297C10.3246 0.529297 10.5403 2.1663 10.5403 5.5708C10.5403 7.27661 10.5403 8.49013 9.82062 9.37862C8.99249 10.4023 7.48517 10.6123 5.47621 10.6123C3.46725 10.6123 1.95994 10.4023 1.13181 9.37862C0.412109 8.49013 0.412109 7.2778 0.412109 5.60046L1.30577 5.5708H0.412109C0.412109 2.1663 0.627781 0.529297 5.47621 0.529297ZM18.5833 0.529297C23.4317 0.529297 23.6474 2.1663 23.6474 5.5708C23.6474 7.27661 23.6474 8.49013 22.9277 9.37862C22.0996 10.4023 20.5923 10.6123 18.5833 10.6123C16.5743 10.6123 15.067 10.4023 14.2389 9.37862C13.5192 8.49013 13.5192 7.2778 13.5192 5.60046L14.4129 5.5708H13.5192C13.5192 2.1663 13.7349 0.529297 18.5833 0.529297ZM5.72186 2.30918L5.47621 2.30865C2.36748 2.30865 2.20806 2.53073 2.19988 5.1284L2.20038 6.14041C2.20603 7.17358 2.24557 7.91989 2.52235 8.26356C2.83811 8.65264 3.77587 8.83295 5.47621 8.83295C7.17656 8.83295 8.11431 8.65146 8.43007 8.26237C8.75298 7.86261 8.75298 6.91362 8.75298 5.59927C8.75298 2.63344 8.75298 2.32314 5.72186 2.30918ZM18.829 2.30918L18.5833 2.30865C15.4746 2.30865 15.3151 2.53073 15.307 5.1284L15.3075 6.14041C15.3131 7.17358 15.3527 7.91989 15.6294 8.26356C15.9452 8.65264 16.883 8.83295 18.5833 8.83295C20.2836 8.83295 21.2214 8.65146 21.5372 8.26237C21.8601 7.86261 21.8601 6.91362 21.8601 5.59927C21.8601 2.63344 21.8601 2.32314 18.829 2.30918Z"></path>
  </symbol>
  <symbol xmlns="http://www.w3.org/2000/svg" viewBox="0 0 19 18" id="error">
    <path d="M8.34182 6.8623H10.3418V11.8623H8.34182V6.8623ZM8.34082 12.8623H10.3408V14.8623H8.34082V12.8623Z"></path>
    <path d="M11.1088 1.062C10.7608 0.407 10.0828 0 9.34077 0C8.59877 0 7.92077 0.407 7.57277 1.063L0.234769 14.926C0.0719372 15.2304 -0.00872219 15.5721 0.000747357 15.9172C0.0102169 16.2623 0.109488 16.599 0.288769 16.894C0.465468 17.1904 0.716409 17.4356 1.01682 17.6053C1.31723 17.7751 1.65672 17.8635 2.00177 17.862H16.6798C17.3878 17.862 18.0288 17.5 18.3938 16.894C18.5728 16.5989 18.6719 16.2622 18.6813 15.9171C18.6908 15.5721 18.6103 15.2305 18.4478 14.926L11.1088 1.062ZM2.00177 15.862L9.34077 1.999L16.6848 15.862H2.00177Z"></path>
  </symbol>
  <symbol xmlns="http://www.w3.org/2000/svg" viewBox="0 0 24 24" id="policies">
    <path d="M10.868 18.6235H13.1915V16.3103H10.868V18.6235ZM12.0298 0.118164C5.61682 0.118164 0.412109 5.29964 0.412109 11.684C0.412109 18.0683 5.61682 23.2498 12.0298 23.2498C18.4427 23.2498 23.6474 18.0683 23.6474 11.684C23.6474 5.29964 18.4427 0.118164 12.0298 0.118164ZM12.0298 20.9366C6.90637 20.9366 2.73564 16.7845 2.73564 11.684C2.73564 6.58345 6.90637 2.43132 12.0298 2.43132C17.1531 2.43132 21.3239 6.58345 21.3239 11.684C21.3239 16.7845 17.1531 20.9366 12.0298 20.9366ZM12.0298 4.74449C9.46226 4.74449 7.3827 6.81476 7.3827 9.37081H9.70623C9.70623 8.09857 10.7518 7.05765 12.0298 7.05765C13.3077 7.05765 14.3533 8.09857 14.3533 9.37081C14.3533 11.684 10.868 11.3948 10.868 15.1537H13.1915C13.1915 12.5514 16.6768 12.2623 16.6768 9.37081C16.6768 6.81476 14.5973 4.74449 12.0298 4.74449Z"></path>
  </symbol>
  <symbol xmlns="http://www.w3.org/2000/svg" viewBox="0 0 24 24" id="contact">
    <path fill-rule="evenodd" clip-rule="evenodd" d="M3.08602 3.64564C3.08829 3.64564 3.03162 3.70431 2.96021 3.77427C2.68592 4.03944 2.11808 4.5912 2.11236 5.74551C2.10335 7.36018 3.16989 10.3582 8.30538 15.4697C13.4171 20.5563 16.424 21.6305 18.0493 21.6305H18.0731C19.2326 21.6248 19.7857 21.0584 20.0532 20.7865C20.1348 20.703 20.2005 20.642 20.247 20.6037C21.3759 19.4731 21.9539 18.6313 21.9483 18.092C21.9403 17.5413 21.2523 16.8903 20.3014 15.9898C19.9988 15.7032 19.6701 15.3918 19.3233 15.0465C18.4245 14.154 17.9791 14.3063 16.9998 14.6494C15.6454 15.1221 13.7866 15.7653 10.8986 12.8891C8.00616 10.0118 8.65334 8.16357 9.1271 6.81519C9.4694 5.84029 9.62581 5.39572 8.72588 4.4998C8.37339 4.15001 8.05716 3.81828 7.76588 3.51362C6.86708 2.57258 6.21877 1.89218 5.66906 1.88428H5.66C5.11709 1.88428 4.27383 2.462 3.08035 3.65015C3.08375 3.64677 3.08489 3.64564 3.08602 3.64564ZM18.0505 23.323C15.226 23.323 11.5435 21.0844 7.10396 16.6669C2.64739 12.2313 0.395298 8.55398 0.412204 5.73648C0.4225 3.8747 1.4029 2.92124 1.77126 2.56355C1.79053 2.53985 1.85627 2.47554 1.87893 2.45297C3.50425 0.833781 4.60026 0.179336 5.6906 0.191575C6.95662 0.208673 7.85768 1.15198 8.9979 2.3469C9.28012 2.64253 9.58614 2.96411 9.92729 3.30262C11.5821 4.95002 11.1106 6.29389 10.732 7.37259C10.3195 8.54947 9.96243 9.56499 12.1 11.6931C14.2399 13.8211 15.26 13.4657 16.4376 13.0516C17.5223 12.6747 18.8688 12.2031 20.5258 13.8505C20.8613 14.1845 21.1798 14.4857 21.4734 14.7644C22.6793 15.9052 23.6314 16.8068 23.6475 18.0705C23.6609 19.1481 23.0035 20.246 21.3804 21.8629L20.6618 21.3777L21.2694 21.969C20.9101 22.3357 19.9535 23.3129 18.0822 23.323H18.0505Z"></path>
  </symbol>
  <symbol xmlns="http://www.w3.org/2000/svg" viewBox="0 0 24 24" id="about">
    <path fill-rule="evenodd" clip-rule="evenodd" d="M12.0298 0.425781C18.4357 0.425781 23.6474 5.6142 23.6474 11.9916C23.6474 18.369 18.4357 23.5574 12.0298 23.5574C5.62379 23.5574 0.412109 18.369 0.412109 11.9916C0.412109 5.6142 5.62379 0.425781 12.0298 0.425781ZM12.0298 2.16065C6.58457 2.16065 2.15476 6.57069 2.15476 11.9916C2.15476 17.4125 6.58457 21.8225 12.0298 21.8225C17.4749 21.8225 21.9048 17.4125 21.9048 11.9916C21.9048 6.57069 17.4749 2.16065 12.0298 2.16065ZM12.0343 15.2253C12.6767 15.2253 13.1961 15.7423 13.1961 16.3818C13.1961 17.0214 12.6767 17.5384 12.0343 17.5384C11.3918 17.5384 10.8667 17.0214 10.8667 16.3818C10.8667 15.7423 11.3814 15.2253 12.0227 15.2253H12.0343ZM12.0229 6.73377C12.5039 6.73377 12.8942 7.12238 12.8942 7.60121V12.7121C12.8942 13.191 12.5039 13.5796 12.0229 13.5796C11.5419 13.5796 11.1516 13.191 11.1516 12.7121V7.60121C11.1516 7.12238 11.5419 6.73377 12.0229 6.73377Z"></path>
  </symbol>
  <symbol xmlns="http://www.w3.org/2000/svg" viewBox="0 0 25 24" id="crop">
    <path fill-rule="evenodd" clip-rule="evenodd" d="M6.54022 20.728C7.38921 20.728 8.08005 21.4146 8.08005 22.2598C8.08005 23.105 7.38921 23.7927 6.54022 23.7927C5.69123 23.7927 5.00158 23.105 5.00158 22.2598C5.00158 21.4146 5.69123 20.728 6.54022 20.728ZM19.9532 20.728C20.8034 20.728 21.4942 21.4146 21.4942 22.2598C21.4942 23.105 20.8034 23.7927 19.9532 23.7927C19.1042 23.7927 18.4145 23.105 18.4145 22.2598C18.4145 21.4146 19.1042 20.728 19.9532 20.728ZM1.45604 0.672363L3.92928 1.09851C4.32762 1.16836 4.63083 1.49744 4.66531 1.89992L4.94474 5.21561L5.9838 5.21606C6.15336 5.21613 6.32112 5.21621 6.48709 5.21628L8.39471 5.21718C8.54677 5.21726 8.69712 5.21734 8.8458 5.21741L10.9521 5.21856C11.0844 5.21864 11.2152 5.21872 11.3443 5.21879L12.8203 5.21973C12.9373 5.21981 13.0527 5.21989 13.1667 5.21997L14.4649 5.22092C14.5674 5.221 14.6685 5.22108 14.7683 5.22116L15.9002 5.22213C15.9892 5.22221 16.0769 5.22229 16.1634 5.22237L16.9073 5.22311C16.9863 5.22319 17.064 5.22327 17.1405 5.22336L18.0021 5.22435C18.0692 5.22443 18.1353 5.22452 18.2003 5.2246L18.9277 5.22561C18.9841 5.2257 19.0394 5.22578 19.0938 5.22587L19.5561 5.22664C19.6046 5.22672 19.652 5.22681 19.6986 5.22689L20.2136 5.22793C20.253 5.22802 20.2915 5.22811 20.3292 5.2282L20.6461 5.22898C20.6789 5.22907 20.711 5.22916 20.7422 5.22925L21.082 5.23032C21.1075 5.23041 21.1323 5.23049 21.1564 5.23058L21.3559 5.2314C21.3762 5.23149 21.3958 5.23158 21.4149 5.23167L21.6167 5.23276C21.6314 5.23285 21.6455 5.23294 21.6592 5.23304L21.7692 5.23387C21.78 5.23396 21.7904 5.23405 21.8004 5.23415L21.8796 5.23499C21.8873 5.23508 21.8946 5.23517 21.9015 5.23527L21.9554 5.23612C21.9605 5.23621 21.9653 5.23631 21.9698 5.2364L22.0039 5.23726C22.007 5.23736 22.0099 5.23745 22.0126 5.23755L22.0373 5.23871C22.0388 5.23881 22.0402 5.2389 22.0415 5.239C22.0531 5.24008 22.0548 5.24027 22.0565 5.24047C22.7188 5.33635 23.3014 5.68083 23.6986 6.21115C24.0957 6.74029 24.2622 7.39254 24.1671 8.04597L23.0387 15.809C22.8258 17.2864 21.5369 18.4003 20.0387 18.4003H7.05294C5.48695 18.4003 4.16115 17.1834 4.03392 15.6267L2.94474 2.73091L1.15283 2.42314C0.666503 2.33791 0.34189 1.87979 0.425124 1.39564C0.510736 0.911481 0.980415 0.596603 1.45604 0.672363ZM5.74525 6.99165L5.09456 6.99124L5.81157 15.4811C5.86388 16.1346 6.40015 16.6246 7.05532 16.6246H20.0363C20.6558 16.6246 21.1849 16.1653 21.2729 15.5557L22.4025 7.79146C22.4287 7.6068 22.3823 7.42213 22.2693 7.27298C22.1576 7.12264 21.9935 7.02557 21.808 6.99953C21.7994 6.99986 21.7789 7.00015 21.747 7.00043L21.6176 7.00116C21.5906 7.00127 21.5608 7.00138 21.5285 7.00147L20.8548 7.00249C20.798 7.00253 20.7389 7.00257 20.6776 7.0026L19.0938 7.00253C19.0055 7.0025 18.9154 7.00246 18.8238 7.00242L17.0163 7.00133C16.908 7.00125 16.7985 7.00117 16.6879 7.00108L15.6652 7.00027C15.5487 7.00017 15.4313 7.00007 15.3131 6.99997L14.2298 6.99902C14.1075 6.99892 13.9845 6.9988 13.8611 6.99869L13.1148 6.99801C12.9896 6.99789 12.8641 6.99778 12.7382 6.99766L11.5994 6.9966C11.4725 6.99648 11.3454 6.99637 11.2184 6.99625L10.4566 6.99554C10.3298 6.99543 10.2032 6.99531 10.0768 6.99519L9.32147 6.99451C9.19622 6.9944 9.07132 6.99429 8.94686 6.99418L7.84043 6.99323C7.71924 6.99313 7.5987 6.99303 7.47888 6.99293L6.08064 6.99188C5.9678 6.9918 5.85598 6.99172 5.74525 6.99165ZM18.1265 9.59112C18.6188 9.59112 19.0183 9.98886 19.0183 10.4789C19.0183 10.969 18.6188 11.3668 18.1265 11.3668H14.8305C14.337 11.3668 13.9387 10.969 13.9387 10.4789C13.9387 9.98886 14.337 9.59112 14.8305 9.59112H18.1265Z"></path>
  </symbol>
  <symbol xmlns="http://www.w3.org/2000/svg" viewBox="0 0 15 9" id="angle_arrow">
    <path d="M0.212584 0.599303C0.470261 0.341625 0.873484 0.3182 1.15762 0.529027L1.23903 0.599303L7.5 6.85994L13.761 0.599303C14.0186 0.341625 14.4219 0.3182 14.706 0.529027L14.7874 0.599303C15.0451 0.85698 15.0685 1.2602 14.8577 1.54434L14.7874 1.62575L8.01322 8.39994C7.75554 8.65762 7.35232 8.68104 7.06818 8.47022L6.98678 8.39994L0.212584 1.62575C-0.0708613 1.3423 -0.0708613 0.882748 0.212584 0.599303Z"></path>
  </symbol>
  <symbol xmlns="http://www.w3.org/2000/svg" viewBox="0 0 18 20" id="upload">
    <path fill-rule="evenodd" clip-rule="evenodd" d="M4.8303 7.35547C5.2029 7.35547 5.5053 7.66462 5.5053 8.04553C5.5053 8.42645 5.2029 8.7356 4.8303 8.7356H3.9834C2.5308 8.7356 1.35 9.94184 1.35 11.4259V15.9206C1.35 17.4102 2.5344 18.621 3.9915 18.621H14.0175C15.4683 18.621 16.65 17.4129 16.65 15.9298V11.4361C16.65 9.94644 15.4647 8.7356 14.0094 8.7356H13.1706C12.798 8.7356 12.4956 8.42645 12.4956 8.04553C12.4956 7.66462 12.798 7.35547 13.1706 7.35547H14.0094C16.2099 7.35547 18 9.18644 18 11.4361V15.9298C18 18.1748 16.2126 20.0012 14.0175 20.0012H3.9915C1.791 20.0012 0 18.1711 0 15.9206V11.4259C0 9.18092 1.7865 7.35547 3.9834 7.35547H4.8303Z"></path>
    <path d="M6.01218 4.57413L8.54266 2.04365V11.0754C8.54266 11.4063 8.81516 11.6788 9.14604 11.6788C9.47693 11.6788 9.74942 11.4063 9.74942 11.0754V2.00472L12.3189 4.57417C12.5524 4.8077 12.9222 4.8077 13.1558 4.57417C13.3893 4.34063 13.3893 3.97079 13.1558 3.73724L9.5937 0.175153C9.47693 0.0583845 9.3212 0 9.16547 0C9.00974 0 8.854 0.0583845 8.73724 0.175153L5.17515 3.73724C4.94162 3.97078 4.94162 4.34062 5.17515 4.57417C5.40883 4.8077 5.77853 4.8077 6.01222 4.57417L6.01218 4.57413Z"></path>
  </symbol>
  <symbol xmlns="http://www.w3.org/2000/svg" viewBox="0 0 15 15" id="edit_label">
    <path d="M14.8888 1.94428V1.70852C14.8888 0.765464 14.1115 0 13.1539 0C12.1962 0 11.4189 0.765464 11.4189 1.70852V1.94428H14.8888Z"></path>
    <path d="M10.8431 13.457H1.31965C0.887473 13.457 0.536133 13.803 0.536133 14.2286C0.536133 14.6542 0.887473 15.0002 1.31965 15.0002H11.9189L10.8431 13.457Z"></path>
    <path d="M10.4047 4.20312H1.31965C0.887472 4.20312 0.536133 4.54911 0.536133 4.97471C0.536133 5.40031 0.887472 5.7463 1.31965 5.7463H10.4047V4.20312Z"></path>
    <path d="M10.4047 7.28516H1.31965C0.887472 7.28516 0.536133 7.63115 0.536133 8.05674C0.536133 8.48234 0.887472 8.82833 1.31965 8.82833H10.4047V7.28516Z"></path>
    <path d="M10.4047 10.3711H1.31965C0.887472 10.3711 0.536133 10.7171 0.536133 11.1427C0.536133 11.5683 0.887472 11.9143 1.31965 11.9143H10.4047V10.3711Z"></path>
    <path d="M11.4219 2.94531V12.5259L13.0013 14.7733C13.076 14.8804 13.2376 14.8804 13.3154 14.7733L14.8948 12.5259V2.94531H11.4219Z"></path>
  </symbol>
  <symbol xmlns="http://www.w3.org/2000/svg" viewBox="0 0 16 16" id="times">
    <path fill-rule="evenodd" clip-rule="evenodd" d="M8.00033 0.666748C3.95033 0.666748 0.666992 3.95008 0.666992 8.00008C0.666992 12.0501 3.95033 15.3334 8.00033 15.3334C12.0503 15.3334 15.3337 12.0501 15.3337 8.00008C15.3337 3.95008 12.0503 0.666748 8.00033 0.666748ZM10.4717 6.47141C10.5931 6.34568 10.6603 6.17728 10.6588 6.00248C10.6573 5.82768 10.5871 5.66047 10.4635 5.53687C10.3399 5.41326 10.1727 5.34315 9.99793 5.34163C9.82313 5.34011 9.65473 5.40731 9.52899 5.52875L8.00033 7.05741L6.47166 5.52875C6.41016 5.46507 6.3366 5.41429 6.25526 5.37935C6.17393 5.34441 6.08645 5.32602 5.99793 5.32525C5.90941 5.32448 5.82162 5.34135 5.73969 5.37487C5.65776 5.40839 5.58332 5.45789 5.52073 5.52048C5.45813 5.58308 5.40863 5.65751 5.37511 5.73945C5.34159 5.82138 5.32472 5.90916 5.32549 5.99768C5.32626 6.0862 5.34465 6.17368 5.37959 6.25502C5.41453 6.33635 5.46532 6.40992 5.52899 6.47141L7.05766 8.00008L5.52899 9.52875C5.46532 9.59025 5.41453 9.66381 5.37959 9.74514C5.34465 9.82648 5.32626 9.91396 5.32549 10.0025C5.32472 10.091 5.34159 10.1788 5.37511 10.2607C5.40863 10.3426 5.45813 10.4171 5.52073 10.4797C5.58332 10.5423 5.65776 10.5918 5.73969 10.6253C5.82162 10.6588 5.90941 10.6757 5.99793 10.6749C6.08645 10.6741 6.17393 10.6558 6.25526 10.6208C6.3366 10.5859 6.41016 10.5351 6.47166 10.4714L8.00033 8.94275L9.52899 10.4714C9.65473 10.5929 9.82313 10.66 9.99793 10.6585C10.1727 10.657 10.3399 10.5869 10.4635 10.4633C10.5871 10.3397 10.6573 10.1725 10.6588 9.99768C10.6603 9.82288 10.5931 9.65448 10.4717 9.52875L8.94299 8.00008L10.4717 6.47141Z"></path>
  </symbol>
  <symbol xmlns="http://www.w3.org/2000/svg" viewBox="0 0 14 14" id="circle_plus">
    <path fill-rule="evenodd" clip-rule="evenodd" d="M7 0C3.13409 0 0 3.13409 0 7C0 10.8659 3.13409 14 7 14C10.8659 14 14 10.8659 14 7C14 3.13409 10.8659 0 7 0ZM7.63636 9.54545C7.63636 9.71423 7.56932 9.87609 7.44998 9.99543C7.33064 10.1148 7.16877 10.1818 7 10.1818C6.83123 10.1818 6.66936 10.1148 6.55002 9.99543C6.43068 9.87609 6.36364 9.71423 6.36364 9.54545V7.63636H4.45455C4.28577 7.63636 4.12391 7.56932 4.00457 7.44998C3.88523 7.33064 3.81818 7.16877 3.81818 7C3.81818 6.83123 3.88523 6.66936 4.00457 6.55002C4.12391 6.43068 4.28577 6.36364 4.45455 6.36364H6.36364V4.45455C6.36364 4.28577 6.43068 4.12391 6.55002 4.00457C6.66936 3.88523 6.83123 3.81818 7 3.81818C7.16877 3.81818 7.33064 3.88523 7.44998 4.00457C7.56932 4.12391 7.63636 4.28577 7.63636 4.45455V6.36364H9.54545C9.71423 6.36364 9.87609 6.43068 9.99543 6.55002C10.1148 6.66936 10.1818 6.83123 10.1818 7C10.1818 7.16877 10.1148 7.33064 9.99543 7.44998C9.87609 7.56932 9.71423 7.63636 9.54545 7.63636H7.63636V9.54545Z"></path>
  </symbol>
  <symbol xmlns="http://www.w3.org/2000/svg" viewBox="0 0 16 16" id="img_thumb">
    <path d="M11.4671 0C14.1785 0 16 1.90249 16 4.73338V11.2666C16 14.0975 14.1785 16 11.4663 16H4.53295C1.82152 16 0 14.0975 0 11.2666V4.73338C0 1.90249 1.82152 0 4.53295 0H11.4671ZM12.3493 8.44004C11.4917 7.90506 10.8296 8.65635 10.6511 8.89659C10.4789 9.12859 10.3309 9.38452 10.1748 9.64045C9.7935 10.272 9.35668 11.0002 8.60048 11.4237C7.50159 12.0322 6.66736 11.4716 6.06723 11.0638C5.84199 10.9119 5.62317 10.7682 5.40516 10.6724C4.86778 10.4405 4.3843 10.7046 3.66672 11.6161C3.29023 12.0925 2.91696 12.5647 2.53887 13.0353C2.31281 13.3168 2.36671 13.7511 2.6716 13.9393C3.1583 14.239 3.75199 14.4 4.42292 14.4H11.1651C11.5456 14.4 11.9269 14.348 12.2905 14.2291C13.1095 13.9616 13.7595 13.349 14.099 12.5399C14.3854 11.8596 14.5245 11.0341 14.2567 10.3472C14.1674 10.1193 14.0338 9.90712 13.8464 9.72054C13.3549 9.23261 12.8955 8.77688 12.3493 8.44004ZM5.19909 3.2C4.09617 3.2 3.2 4.09738 3.2 5.2C3.2 6.30262 4.09617 7.2 5.19909 7.2C6.3012 7.2 7.19817 6.30262 7.19817 5.2C7.19817 4.09738 6.3012 3.2 5.19909 3.2Z"></path>
  </symbol>
  <symbol xmlns="http://www.w3.org/2000/svg" viewBox="0 0 11 11" id="trash">
    <path d="M10.5417 1.98H8.70833V0.88C8.70833 0.394625 8.29727 0 7.79167 0H3.20833C2.70273 0 2.29167 0.394625 2.29167 0.88V1.98H0.458333C0.204818 1.98 0 2.17663 0 2.42V2.86C0 2.9205 0.0515625 2.97 0.114583 2.97H0.979687L1.33346 10.1613C1.35638 10.6301 1.76029 11 2.2487 11H8.7513C9.24115 11 9.64362 10.6315 9.66654 10.1613L10.0203 2.97H10.8854C10.9484 2.97 11 2.9205 11 2.86V2.42C11 2.17663 10.7952 1.98 10.5417 1.98ZM7.67708 1.98H3.32292V0.99H7.67708V1.98Z"></path>
  </symbol>
  <symbol xmlns="http://www.w3.org/2000/svg" viewBox="0 0 11 8" id="d_long_arrow">
    <path d="M7.48196 0.603288C7.257 0.378331 6.89622 0.378331 6.67126 0.603288C6.44631 0.828246 6.44631 1.18903 6.67126 1.41398L8.68739 3.43011H0.818122C0.499786 3.43011 0.245117 3.68478 0.245117 4.00312C0.245117 4.32145 0.499786 4.57612 0.818122 4.57612H8.68739L6.67551 6.58801C6.45055 6.81297 6.45055 7.17375 6.67551 7.3987C6.78586 7.50906 6.93442 7.56848 7.07873 7.56848C7.22305 7.56848 7.3716 7.51331 7.48196 7.3987L10.4743 4.40634C10.6993 4.18139 10.6993 3.82061 10.4743 3.59565L7.48196 0.603288Z"></path>
  </symbol>
  <symbol fill="none" xmlns="http://www.w3.org/2000/svg" viewBox="0 0 16 16" id="editor">
    <path d="M15.0482 14.1807C15.513 14.1807 15.8911 14.5887 15.8911 15.0903C15.8911 15.5929 15.513 16 15.0482 16H10.2841C9.81928 16 9.44123 15.5929 9.44123 15.0903C9.44123 14.5887 9.81928 14.1807 10.2841 14.1807H15.0482ZM11.7443 0.62139L12.975 1.66292C13.4796 2.08335 13.8161 2.63756 13.9312 3.22044C14.064 3.8616 13.9223 4.49129 13.5239 5.03595L6.19311 15.1359C5.85667 15.5946 5.36087 15.8526 4.82965 15.8621L1.90795 15.9003C1.74859 15.9003 1.61578 15.7857 1.58037 15.6232L0.916348 12.556C0.801251 11.9922 0.916348 11.4093 1.25279 10.9602L6.44986 3.79375C6.5384 3.67909 6.69776 3.66094 6.80401 3.74598L8.99085 5.59971C9.13251 5.72393 9.32729 5.79082 9.53092 5.76215C9.96475 5.70482 10.2569 5.28438 10.2127 4.83528C10.1861 4.60596 10.0798 4.41485 9.93819 4.27152C9.89392 4.2333 7.81332 2.45601 7.81332 2.45601C7.68051 2.34135 7.65395 2.13113 7.7602 1.98876L8.58358 0.850717C9.345 -0.190812 10.673 -0.286365 11.7443 0.62139Z" fill="#1F3857"></path>
  </symbol>
  <symbol xmlns="http://www.w3.org/2000/svg" viewBox="0 0 17 13" id="menu">
    <path d="M0.531236 1.71872H16.4687C16.762 1.71872 17 1.4807 17 1.18749C17 0.894224 16.7619 0.65625 16.4687 0.65625H0.531236C0.238019 0.65625 0 0.894224 0 1.18749C0 1.48075 0.238019 1.71872 0.531236 1.71872Z"></path>
    <path d="M16.4687 5.96875H0.531236C0.237974 5.96875 0 6.20677 0 6.49999C0 6.7932 0.238019 7.03122 0.531236 7.03122H16.4687C16.762 7.03122 17 6.7932 17 6.49999C17 6.20677 16.762 5.96875 16.4687 5.96875Z"></path>
    <path d="M16.4687 11.2812H0.531236C0.237974 11.2812 0 11.5193 0 11.8125C0 12.1058 0.238019 12.3437 0.531236 12.3437H16.4687C16.762 12.3437 17 12.1057 17 11.8125C17 11.5192 16.762 11.2812 16.4687 11.2812Z"></path>
  </symbol>
  <symbol xmlns="http://www.w3.org/2000/svg" viewBox="0 0 20 20" id="close">
    <path d="M10 0C4.47 0 0 4.47 0 10C0 15.53 4.47 20 10 20C15.53 20 20 15.53 20 10C20 4.47 15.53 0 10 0ZM14.3 14.3C14.2075 14.3927 14.0976 14.4663 13.9766 14.5164C13.8557 14.5666 13.726 14.5924 13.595 14.5924C13.464 14.5924 13.3343 14.5666 13.2134 14.5164C13.0924 14.4663 12.9825 14.3927 12.89 14.3L10 11.41L7.11 14.3C6.92302 14.487 6.66943 14.592 6.405 14.592C6.14057 14.592 5.88698 14.487 5.7 14.3C5.51302 14.113 5.40798 13.8594 5.40798 13.595C5.40798 13.4641 5.43377 13.3344 5.48387 13.2135C5.53398 13.0925 5.60742 12.9826 5.7 12.89L8.59 10L5.7 7.11C5.51302 6.92302 5.40798 6.66943 5.40798 6.405C5.40798 6.14057 5.51302 5.88698 5.7 5.7C5.88698 5.51302 6.14057 5.40798 6.405 5.40798C6.66943 5.40798 6.92302 5.51302 7.11 5.7L10 8.59L12.89 5.7C12.9826 5.60742 13.0925 5.53398 13.2135 5.48387C13.3344 5.43377 13.4641 5.40798 13.595 5.40798C13.7259 5.40798 13.8556 5.43377 13.9765 5.48387C14.0975 5.53398 14.2074 5.60742 14.3 5.7C14.3926 5.79258 14.466 5.90249 14.5161 6.02346C14.5662 6.14442 14.592 6.27407 14.592 6.405C14.592 6.53593 14.5662 6.66558 14.5161 6.78654C14.466 6.90751 14.3926 7.01742 14.3 7.11L11.41 10L14.3 12.89C14.68 13.27 14.68 13.91 14.3 14.3Z"></path>
  </symbol>
  <symbol xmlns="http://www.w3.org/2000/svg" viewBox="0 0 30 30" id="sq_plus">
    <path fill-rule="evenodd" clip-rule="evenodd" d="M21.5386 0C26.5995 0 30 3.55256 30 8.83953V21.1605C30 26.4474 26.5995 30 21.5386 30H8.4614C3.40047 30 0 26.4474 0 21.1605V8.83953C0 3.55256 3.40047 0 8.4614 0H21.5386ZM21.5386 2.09302H8.4614C4.59349 2.09302 2.09302 4.74 2.09302 8.83953V21.1605C2.09302 25.26 4.59349 27.907 8.4614 27.907H21.5386C25.4079 27.907 27.907 25.26 27.907 21.1605V8.83953C27.907 4.74 25.4079 2.09302 21.5386 2.09302ZM15 8.82879C15.5777 8.82879 16.0465 9.29763 16.0465 9.8753V13.9395L20.116 13.9398C20.6937 13.9398 21.1626 14.4087 21.1626 14.9863C21.1626 15.564 20.6937 16.0328 20.116 16.0328L16.0465 16.0326V20.099C16.0465 20.6767 15.5777 21.1455 15 21.1455C14.4223 21.1455 13.9535 20.6767 13.9535 20.099V16.0326L9.88395 16.0328C9.30488 16.0328 8.83744 15.564 8.83744 14.9863C8.83744 14.4087 9.30488 13.9398 9.88395 13.9398L13.9535 13.9395V9.8753C13.9535 9.29763 14.4223 8.82879 15 8.82879Z"></path>
  </symbol>
  <symbol xmlns="http://www.w3.org/2000/svg" viewBox="0 0 28 30" id="outline_delete">
    <path fill-rule="evenodd" clip-rule="evenodd" d="M24.5773 10.0797C25.1968 10.1307 25.6588 10.6722 25.6093 11.2917C25.6003 11.3937 24.7873 21.4604 24.3193 25.6829C24.0283 28.3035 22.2972 29.898 19.6842 29.946C17.6847 29.9805 15.7556 30 13.8701 30C11.8376 30 9.85605 29.9775 7.89552 29.937C5.38748 29.8875 3.65195 28.2615 3.36845 25.6934C2.89594 21.4334 2.08743 11.3922 2.07993 11.2917C2.02893 10.6722 2.49094 10.1292 3.11045 10.0797C3.72096 10.0632 4.27296 10.4922 4.32246 11.1102C4.32725 11.1753 4.65778 15.2758 5.01797 19.3329L5.09031 20.1425C5.27173 22.1591 5.45562 24.0969 5.60498 25.4459C5.76549 26.9055 6.553 27.6585 7.94202 27.687C11.6921 27.7665 15.5186 27.771 19.6437 27.696C21.1197 27.6675 21.9177 26.9295 22.0827 25.4354C22.5477 21.2444 23.3577 11.2122 23.3667 11.1102C23.4162 10.4922 23.9638 10.0602 24.5773 10.0797ZM17.0184 0C18.3954 0 19.6059 0.928514 19.9614 2.25903L20.3424 4.15056C20.4655 4.77063 21.0097 5.22346 21.6397 5.23341L26.5624 5.23358C27.1834 5.23358 27.6874 5.73759 27.6874 6.35859C27.6874 6.9796 27.1834 7.48361 26.5624 7.48361L21.6837 7.48339C21.6761 7.48354 21.6685 7.48361 21.6609 7.48361L21.6243 7.48211L6.06252 7.48343C6.05042 7.48355 6.03831 7.48361 6.02619 7.48361L6.00309 7.48211L1.12502 7.48361C0.504008 7.48361 0 6.9796 0 6.35859C0 5.73759 0.504008 5.23358 1.12502 5.23358L6.04659 5.23208L6.19812 5.22249C6.76256 5.14925 7.23166 4.72057 7.34621 4.15056L7.71072 2.32653C8.08122 0.928514 9.29174 0 10.6688 0H17.0184ZM17.0184 2.25003H10.6688C10.3088 2.25003 9.99225 2.49154 9.90075 2.83804L9.55124 4.59307C9.50682 4.81537 9.44214 5.0296 9.35937 5.23398H18.3282C18.2453 5.0296 18.1805 4.81537 18.1359 4.59307L17.7714 2.76904C17.6949 2.49154 17.3784 2.25003 17.0184 2.25003Z"></path>
  </symbol>
  <symbol xmlns="http://www.w3.org/2000/svg" viewBox="0 0 16 9" id="show">
    <path fill-rule="evenodd" clip-rule="evenodd" d="M7.64349 8.905C11.6826 8.905 15.0379 4.96112 15.0379 4.96112C15.3003 4.68021 15.3076 4.21628 15.0461 3.93308C15.0461 3.93308 11.8568 0 7.67833 0C3.49986 0 0.310536 3.93308 0.310536 3.93308C0.0526508 4.21997 0.0513115 4.68561 0.315092 4.96542C0.315092 4.96542 3.60443 8.90498 7.64358 8.90498L7.64349 8.905ZM7.67834 7.59546C9.40912 7.59546 10.8121 6.18837 10.8121 4.45258C10.8121 2.71682 9.40903 1.30971 7.67834 1.30971C5.94748 1.30971 4.54454 2.71688 4.54454 4.45258C4.54454 6.18835 5.94757 7.59546 7.67834 7.59546ZM7.67834 5.84941C8.44757 5.84941 9.07118 5.22406 9.07118 4.45263C9.07118 3.6812 8.44759 3.05576 7.67834 3.05576C6.90912 3.05576 6.28545 3.6812 6.28545 4.45263C6.28545 5.22406 6.90912 5.84941 7.67834 5.84941Z"></path>
  </symbol>
</svg>
